<svg width="710" height="230" viewBox="280 18 710 230" fill="none" xmlns="http://www.w3.org/2000/svg">
<path d="M609 185C666.397 211.804 671.397 25.3041 724 22" stroke="#B8851E" stroke-width="2.5" stroke-linecap="round"/>
<path d="M306.16 136.96C302.053 136.96 298.453 136.24 295.36 134.8C292.267 133.307 289.867 131.227 288.16 128.56C286.453 125.893 285.6 122.773 285.6 119.2H294C294.053 121.227 294.533 123.093 295.44 124.8C296.4 126.453 297.76 127.787 299.52 128.8C301.333 129.76 303.547 130.24 306.16 130.24C308.4 130.24 310.32 129.867 311.92 129.12C313.573 128.373 314.827 127.36 315.68 126.08C316.533 124.747 316.96 123.227 316.96 121.52C316.96 119.547 316.507 117.92 315.6 116.64C314.693 115.36 313.467 114.32 311.92 113.52C310.427 112.667 308.667 111.92 306.64 111.28C304.667 110.64 302.587 109.947 300.4 109.2C295.973 107.76 292.667 105.893 290.48 103.6C288.347 101.307 287.28 98.32 287.28 94.64C287.28 91.4933 288.027 88.7733 289.52 86.48C291.013 84.1333 293.093 82.32 295.76 81.04C298.48 79.7067 301.68 79.04 305.36 79.04C308.987 79.04 312.16 79.7067 314.88 81.04C317.6 82.3733 319.733 84.2133 321.28 86.56C322.827 88.9067 323.6 91.6533 323.6 94.8H315.12C315.12 93.36 314.747 91.9467 314 90.56C313.253 89.1733 312.133 88.0533 310.64 87.2C309.147 86.2933 307.307 85.84 305.12 85.84C303.307 85.7867 301.68 86.08 300.24 86.72C298.8 87.36 297.68 88.2933 296.88 89.52C296.08 90.7467 295.68 92.2133 295.68 93.92C295.68 95.6267 296.027 97.0133 296.72 98.08C297.467 99.0933 298.533 99.9733 299.92 100.72C301.307 101.467 302.907 102.16 304.72 102.8C306.587 103.387 308.64 104.053 310.88 104.8C313.653 105.707 316.107 106.827 318.24 108.16C320.427 109.44 322.133 111.12 323.36 113.2C324.64 115.227 325.28 117.84 325.28 121.04C325.28 123.813 324.56 126.4 323.12 128.8C321.68 131.2 319.547 133.173 316.72 134.72C313.893 136.213 310.373 136.96 306.16 136.96ZM341.193 136V80H376.553V86.56H349.193V104.48H374.153V110.88H349.193V129.44H376.553V136H341.193ZM417.856 136.96C412.363 136.96 407.616 135.76 403.616 133.36C399.67 130.907 396.603 127.52 394.416 123.2C392.283 118.827 391.216 113.76 391.216 108C391.216 102.293 392.283 97.2533 394.416 92.88C396.603 88.5067 399.67 85.12 403.616 82.72C407.616 80.2667 412.363 79.04 417.856 79.04C424.416 79.04 429.723 80.6133 433.776 83.76C437.883 86.9067 440.496 91.3333 441.616 97.04H432.816C432.016 93.7333 430.363 91.0933 427.856 89.12C425.403 87.1467 422.07 86.16 417.856 86.16C414.07 86.16 410.79 87.04 408.016 88.8C405.243 90.56 403.11 93.0667 401.616 96.32C400.123 99.5733 399.376 103.467 399.376 108C399.376 112.533 400.123 116.453 401.616 119.76C403.11 123.013 405.243 125.52 408.016 127.28C410.79 128.987 414.07 129.84 417.856 129.84C422.07 129.84 425.403 128.907 427.856 127.04C430.363 125.12 432.016 122.533 432.816 119.28H441.616C440.496 124.827 437.883 129.173 433.776 132.32C429.723 135.413 424.416 136.96 417.856 136.96ZM482.787 136.96C477.4 136.96 472.654 135.76 468.547 133.36C464.494 130.907 461.294 127.52 458.947 123.2C456.654 118.827 455.507 113.76 455.507 108C455.507 102.293 456.654 97.28 458.947 92.96C461.294 88.5867 464.494 85.1733 468.547 82.72C472.654 80.2667 477.4 79.04 482.787 79.04C488.28 79.04 493.08 80.2667 497.187 82.72C501.294 85.1733 504.467 88.5867 506.707 92.96C509 97.28 510.147 102.293 510.147 108C510.147 113.76 509 118.827 506.707 123.2C504.467 127.52 501.294 130.907 497.187 133.36C493.08 135.76 488.28 136.96 482.787 136.96ZM482.867 129.84C486.707 129.84 490.067 128.96 492.947 127.2C495.827 125.44 498.04 122.933 499.587 119.68C501.187 116.427 501.987 112.533 501.987 108C501.987 103.467 501.187 99.5733 499.587 96.32C498.04 93.0667 495.827 90.5867 492.947 88.88C490.067 87.12 486.707 86.24 482.867 86.24C479.027 86.24 475.667 87.12 472.787 88.88C469.907 90.5867 467.667 93.0667 466.067 96.32C464.467 99.5733 463.667 103.467 463.667 108C463.667 112.533 464.467 116.427 466.067 119.68C467.667 122.933 469.907 125.44 472.787 127.2C475.667 128.96 479.027 129.84 482.867 129.84ZM526.174 136V80H534.174L562.734 122.96V80H570.734V136H562.734L534.174 93.12V136H526.174ZM588.824 136V80H606.024C612.531 80 617.918 81.1467 622.184 83.44C626.451 85.7333 629.598 88.9867 631.624 93.2C633.704 97.36 634.744 102.32 634.744 108.08C634.744 113.84 633.704 118.8 631.624 122.96C629.598 127.12 626.451 130.347 622.184 132.64C617.971 134.88 612.584 136 606.024 136H588.824ZM596.824 129.28H605.704C610.878 129.28 614.984 128.427 618.024 126.72C621.064 125.013 623.224 122.587 624.504 119.44C625.838 116.24 626.504 112.453 626.504 108.08C626.504 103.653 625.838 99.84 624.504 96.64C623.224 93.44 621.064 90.9867 618.024 89.28C614.984 87.5733 610.878 86.72 605.704 86.72H596.824V129.28Z" fill="#2A2A27"/>
<path d="M732.4 136.96C726.907 136.96 722.16 135.76 718.16 133.36C714.213 130.907 711.147 127.52 708.96 123.2C706.827 118.827 705.76 113.76 705.76 108C705.76 102.293 706.827 97.2533 708.96 92.88C711.147 88.5067 714.213 85.12 718.16 82.72C722.16 80.2667 726.907 79.04 732.4 79.04C738.96 79.04 744.267 80.6133 748.32 83.76C752.427 86.9067 755.04 91.3333 756.16 97.04H747.36C746.56 93.7333 744.907 91.0933 742.4 89.12C739.947 87.1467 736.613 86.16 732.4 86.16C728.613 86.16 725.333 87.04 722.56 88.8C719.787 90.56 717.653 93.0667 716.16 96.32C714.667 99.5733 713.92 103.467 713.92 108C713.92 112.533 714.667 116.453 716.16 119.76C717.653 123.013 719.787 125.52 722.56 127.28C725.333 128.987 728.613 129.84 732.4 129.84C736.613 129.84 739.947 128.907 742.4 127.04C744.907 125.12 746.56 122.533 747.36 119.28H756.16C755.04 124.827 752.427 129.173 748.32 132.32C744.267 135.413 738.96 136.96 732.4 136.96ZM792.771 136.96C788.824 136.96 785.251 136.187 782.051 134.64C778.851 133.04 776.291 130.64 774.371 127.44C772.504 124.187 771.571 120.053 771.571 115.04V80H779.571V115.12C779.571 118.48 780.131 121.253 781.251 123.44C782.371 125.573 783.917 127.173 785.891 128.24C787.917 129.253 790.264 129.76 792.931 129.76C795.651 129.76 797.997 129.253 799.971 128.24C801.944 127.173 803.464 125.573 804.531 123.44C805.651 121.253 806.211 118.48 806.211 115.12V80H814.211V115.04C814.211 120.053 813.251 124.187 811.331 127.44C809.411 130.64 806.824 133.04 803.571 134.64C800.317 136.187 796.717 136.96 792.771 136.96ZM831.734 136V80H850.694C855.12 80 858.747 80.7467 861.574 82.24C864.4 83.7333 866.48 85.7333 867.814 88.24C869.2 90.6933 869.894 93.4933 869.894 96.64C869.894 99.6267 869.2 102.4 867.814 104.96C866.48 107.467 864.374 109.493 861.494 111.04C858.614 112.533 854.934 113.28 850.454 113.28H839.734V136H831.734ZM861.174 136L849.094 111.12H857.894L870.454 136H861.174ZM839.734 107.2H850.134C854.08 107.2 856.987 106.24 858.854 104.32C860.72 102.347 861.654 99.84 861.654 96.8C861.654 93.7067 860.747 91.2533 858.934 89.44C857.12 87.6267 854.187 86.72 850.134 86.72H839.734V107.2ZM901.022 136L880.222 80H888.862L905.822 127.68L922.942 80H931.422L910.622 136H901.022ZM945.237 136V80H980.597V86.56H953.237V104.48H978.197V110.88H953.237V129.44H980.597V136H945.237Z" fill="#B8851E"/>
<line opacity="0.2" x1="282" y1="196.5" x2="986" y2="196.5" stroke="#2A2A27"/>
<g opacity="0.45" transform="translate(398 223) scale(1.2) translate(-398 -223)">
<mask id="path-5-outside-1_0_1" maskUnits="userSpaceOnUse" x="285" y="215" width="225" height="16" fill="black">
<rect fill="white" x="285" y="215" width="225" height="16"/>
<path d="M290.624 229.192C289.76 229.192 289.035 229.037 288.448 228.728C287.872 228.419 287.435 227.997 287.136 227.464C286.848 226.92 286.709 226.312 286.72 225.64H287.472C287.472 226.163 287.579 226.648 287.792 227.096C288.016 227.533 288.357 227.885 288.816 228.152C289.285 228.419 289.883 228.552 290.608 228.552C291.269 228.552 291.808 228.445 292.224 228.232C292.651 228.019 292.971 227.731 293.184 227.368C293.397 227.005 293.504 226.6 293.504 226.152C293.504 225.608 293.381 225.176 293.136 224.856C292.901 224.525 292.587 224.259 292.192 224.056C291.808 223.853 291.376 223.683 290.896 223.544C290.427 223.395 289.963 223.235 289.504 223.064C288.757 222.797 288.187 222.461 287.792 222.056C287.397 221.64 287.2 221.091 287.2 220.408C287.2 219.885 287.323 219.416 287.568 219C287.824 218.573 288.197 218.237 288.688 217.992C289.179 217.736 289.776 217.608 290.48 217.608C291.131 217.608 291.707 217.725 292.208 217.96C292.709 218.195 293.104 218.536 293.392 218.984C293.68 219.421 293.824 219.965 293.824 220.616H293.056C293.056 220.115 292.949 219.688 292.736 219.336C292.533 218.984 292.235 218.717 291.84 218.536C291.456 218.344 290.997 218.248 290.464 218.248C289.899 218.248 289.429 218.344 289.056 218.536C288.683 218.717 288.405 218.968 288.224 219.288C288.043 219.597 287.952 219.955 287.952 220.36C287.952 220.819 288.064 221.187 288.288 221.464C288.512 221.741 288.811 221.971 289.184 222.152C289.568 222.323 289.995 222.483 290.464 222.632C290.933 222.781 291.413 222.952 291.904 223.144C292.352 223.325 292.752 223.539 293.104 223.784C293.467 224.029 293.749 224.339 293.952 224.712C294.165 225.085 294.272 225.555 294.272 226.12C294.272 226.675 294.139 227.187 293.872 227.656C293.605 228.115 293.2 228.488 292.656 228.776C292.123 229.053 291.445 229.192 290.624 229.192ZM302.466 229V218.408H299.074V217.8H306.562V218.408H303.186V229H302.466ZM312.295 229V217.8H315.431C316.295 217.8 316.993 217.939 317.527 218.216C318.071 218.493 318.465 218.872 318.711 219.352C318.967 219.832 319.095 220.376 319.095 220.984C319.095 221.603 318.967 222.157 318.711 222.648C318.455 223.128 318.055 223.507 317.511 223.784C316.977 224.051 316.268 224.184 315.383 224.184H313.015V229H312.295ZM318.359 229L315.766 223.912H316.599L319.223 229H318.359ZM313.015 223.592H315.399C316.369 223.592 317.1 223.368 317.591 222.92C318.092 222.472 318.343 221.827 318.343 220.984C318.343 220.163 318.097 219.533 317.607 219.096C317.116 218.648 316.38 218.424 315.399 218.424H313.015V223.592ZM324.575 229L328.687 217.8H329.455L333.519 229H332.751L329.055 218.728L325.327 229H324.575ZM326.319 225.448L326.559 224.84H331.551L331.791 225.448H326.319ZM340.497 229V218.408H337.105V217.8H344.593V218.408H341.217V229H340.497ZM350.326 229V217.8H356.902V218.408H351.046V223.08H356.422V223.704H351.046V228.392H356.902V229H350.326ZM367.748 229.192C366.713 229.192 365.812 228.947 365.044 228.456C364.276 227.965 363.678 227.288 363.252 226.424C362.825 225.549 362.612 224.536 362.612 223.384C362.612 222.243 362.83 221.24 363.268 220.376C363.705 219.501 364.318 218.824 365.108 218.344C365.908 217.853 366.841 217.608 367.908 217.608C369.113 217.608 370.116 217.896 370.916 218.472C371.716 219.048 372.249 219.869 372.516 220.936H371.684C371.481 220.136 371.065 219.496 370.436 219.016C369.806 218.525 368.964 218.28 367.908 218.28C367.012 218.28 366.222 218.488 365.54 218.904C364.857 219.309 364.324 219.891 363.94 220.648C363.556 221.405 363.364 222.317 363.364 223.384C363.364 224.429 363.55 225.341 363.924 226.12C364.297 226.888 364.809 227.48 365.46 227.896C366.121 228.312 366.884 228.52 367.748 228.52C369.092 228.52 370.11 228.109 370.804 227.288C371.497 226.456 371.886 225.277 371.972 223.752H368.356V223.16H372.724V229H372.084L371.956 226.472C371.7 227.059 371.374 227.555 370.98 227.96C370.596 228.365 370.137 228.675 369.604 228.888C369.07 229.091 368.452 229.192 367.748 229.192ZM378.935 229V217.8H379.655V229H378.935ZM390.875 229.192C389.819 229.192 388.896 228.952 388.107 228.472C387.328 227.981 386.725 227.304 386.299 226.44C385.872 225.565 385.659 224.552 385.659 223.4C385.659 222.248 385.872 221.24 386.299 220.376C386.725 219.501 387.328 218.824 388.107 218.344C388.896 217.853 389.819 217.608 390.875 217.608C392.101 217.608 393.088 217.891 393.835 218.456C394.581 219.011 395.072 219.8 395.307 220.824H394.507C394.315 220.056 393.92 219.437 393.323 218.968C392.736 218.499 391.92 218.264 390.875 218.264C389.989 218.264 389.211 218.467 388.539 218.872C387.877 219.277 387.355 219.864 386.971 220.632C386.597 221.4 386.411 222.323 386.411 223.4C386.411 224.477 386.597 225.4 386.971 226.168C387.355 226.925 387.877 227.512 388.539 227.928C389.211 228.333 389.989 228.536 390.875 228.536C391.909 228.536 392.725 228.301 393.323 227.832C393.931 227.352 394.325 226.728 394.507 225.96H395.307C395.072 226.984 394.581 227.779 393.835 228.344C393.088 228.909 392.101 229.192 390.875 229.192ZM408.622 229L412.734 217.8H413.502L417.566 229H416.798L413.102 218.728L409.374 229H408.622ZM410.366 225.448L410.606 224.84H415.598L415.838 225.448H410.366ZM423.482 229V217.8H426.426C427.749 217.8 428.831 218.024 429.674 218.472C430.527 218.909 431.157 219.549 431.562 220.392C431.978 221.235 432.186 222.253 432.186 223.448C432.186 224.557 431.989 225.528 431.594 226.36C431.21 227.192 430.602 227.843 429.77 228.312C428.938 228.771 427.845 229 426.49 229H423.482ZM424.202 228.392H426.474C427.647 228.392 428.597 228.195 429.322 227.8C430.047 227.395 430.581 226.824 430.922 226.088C431.263 225.352 431.434 224.472 431.434 223.448C431.434 222.413 431.263 221.523 430.922 220.776C430.591 220.019 430.063 219.437 429.338 219.032C428.623 218.616 427.669 218.408 426.474 218.408H424.202V228.392ZM441.205 229L436.869 217.8H437.653L441.621 228.184L445.621 217.8H446.405L442.037 229H441.205ZM452.013 229V217.8H452.733V229H452.013ZM462.593 229.192C461.729 229.192 461.003 229.037 460.417 228.728C459.841 228.419 459.403 227.997 459.105 227.464C458.817 226.92 458.678 226.312 458.689 225.64H459.441C459.441 226.163 459.547 226.648 459.761 227.096C459.985 227.533 460.326 227.885 460.785 228.152C461.254 228.419 461.851 228.552 462.577 228.552C463.238 228.552 463.777 228.445 464.193 228.232C464.619 228.019 464.939 227.731 465.153 227.368C465.366 227.005 465.473 226.6 465.473 226.152C465.473 225.608 465.35 225.176 465.105 224.856C464.87 224.525 464.555 224.259 464.161 224.056C463.777 223.853 463.345 223.683 462.865 223.544C462.395 223.395 461.931 223.235 461.473 223.064C460.726 222.797 460.155 222.461 459.761 222.056C459.366 221.64 459.169 221.091 459.169 220.408C459.169 219.885 459.291 219.416 459.537 219C459.793 218.573 460.166 218.237 460.657 217.992C461.147 217.736 461.745 217.608 462.449 217.608C463.099 217.608 463.675 217.725 464.177 217.96C464.678 218.195 465.073 218.536 465.361 218.984C465.649 219.421 465.793 219.965 465.793 220.616H465.025C465.025 220.115 464.918 219.688 464.705 219.336C464.502 218.984 464.203 218.717 463.809 218.536C463.425 218.344 462.966 218.248 462.433 218.248C461.867 218.248 461.398 218.344 461.025 218.536C460.651 218.717 460.374 218.968 460.193 219.288C460.011 219.597 459.921 219.955 459.921 220.36C459.921 220.819 460.033 221.187 460.257 221.464C460.481 221.741 460.779 221.971 461.153 222.152C461.537 222.323 461.963 222.483 462.433 222.632C462.902 222.781 463.382 222.952 463.873 223.144C464.321 223.325 464.721 223.539 465.073 223.784C465.435 224.029 465.718 224.339 465.921 224.712C466.134 225.085 466.241 225.555 466.241 226.12C466.241 226.675 466.107 227.187 465.841 227.656C465.574 228.115 465.169 228.488 464.625 228.776C464.091 229.053 463.414 229.192 462.593 229.192ZM477.065 229.192C475.998 229.192 475.065 228.952 474.265 228.472C473.465 227.981 472.841 227.304 472.393 226.44C471.945 225.565 471.721 224.552 471.721 223.4C471.721 222.259 471.945 221.256 472.393 220.392C472.841 219.517 473.465 218.835 474.265 218.344C475.065 217.853 475.998 217.608 477.065 217.608C478.153 217.608 479.097 217.853 479.897 218.344C480.708 218.835 481.332 219.517 481.769 220.392C482.206 221.256 482.425 222.259 482.425 223.4C482.425 224.552 482.206 225.565 481.769 226.44C481.332 227.304 480.708 227.981 479.897 228.472C479.097 228.952 478.153 229.192 477.065 229.192ZM477.081 228.536C477.966 228.536 478.756 228.333 479.449 227.928C480.142 227.523 480.686 226.936 481.081 226.168C481.476 225.4 481.673 224.477 481.673 223.4C481.673 222.323 481.476 221.4 481.081 220.632C480.686 219.864 480.142 219.277 479.449 218.872C478.756 218.467 477.966 218.264 477.081 218.264C476.196 218.264 475.406 218.467 474.713 218.872C474.02 219.277 473.47 219.864 473.065 220.632C472.67 221.4 472.473 222.323 472.473 223.4C472.473 224.477 472.67 225.4 473.065 226.168C473.47 226.936 474.02 227.523 474.713 227.928C475.406 228.333 476.196 228.536 477.081 228.536ZM488.435 229V217.8H491.571C492.435 217.8 493.134 217.939 493.667 218.216C494.211 218.493 494.606 218.872 494.851 219.352C495.107 219.832 495.235 220.376 495.235 220.984C495.235 221.603 495.107 222.157 494.851 222.648C494.595 223.128 494.195 223.507 493.651 223.784C493.118 224.051 492.408 224.184 491.523 224.184H489.155V229H488.435ZM494.499 229L491.907 223.912H492.739L495.363 229H494.499ZM489.155 223.592H491.539C492.51 223.592 493.24 223.368 493.731 222.92C494.232 222.472 494.483 221.827 494.483 220.984C494.483 220.163 494.238 219.533 493.747 219.096C493.256 218.648 492.52 218.424 491.539 218.424H489.155V223.592ZM503.576 229V224.328L500.024 217.8H500.824L504.04 223.816H503.848L506.984 217.8H507.8L504.296 224.328V229H503.576Z"/>
</mask>
<path d="M290.624 229.192C289.76 229.192 289.035 229.037 288.448 228.728C287.872 228.419 287.435 227.997 287.136 227.464C286.848 226.92 286.709 226.312 286.72 225.64H287.472C287.472 226.163 287.579 226.648 287.792 227.096C288.016 227.533 288.357 227.885 288.816 228.152C289.285 228.419 289.883 228.552 290.608 228.552C291.269 228.552 291.808 228.445 292.224 228.232C292.651 228.019 292.971 227.731 293.184 227.368C293.397 227.005 293.504 226.6 293.504 226.152C293.504 225.608 293.381 225.176 293.136 224.856C292.901 224.525 292.587 224.259 292.192 224.056C291.808 223.853 291.376 223.683 290.896 223.544C290.427 223.395 289.963 223.235 289.504 223.064C288.757 222.797 288.187 222.461 287.792 222.056C287.397 221.64 287.2 221.091 287.2 220.408C287.2 219.885 287.323 219.416 287.568 219C287.824 218.573 288.197 218.237 288.688 217.992C289.179 217.736 289.776 217.608 290.48 217.608C291.131 217.608 291.707 217.725 292.208 217.96C292.709 218.195 293.104 218.536 293.392 218.984C293.68 219.421 293.824 219.965 293.824 220.616H293.056C293.056 220.115 292.949 219.688 292.736 219.336C292.533 218.984 292.235 218.717 291.84 218.536C291.456 218.344 290.997 218.248 290.464 218.248C289.899 218.248 289.429 218.344 289.056 218.536C288.683 218.717 288.405 218.968 288.224 219.288C288.043 219.597 287.952 219.955 287.952 220.36C287.952 220.819 288.064 221.187 288.288 221.464C288.512 221.741 288.811 221.971 289.184 222.152C289.568 222.323 289.995 222.483 290.464 222.632C290.933 222.781 291.413 222.952 291.904 223.144C292.352 223.325 292.752 223.539 293.104 223.784C293.467 224.029 293.749 224.339 293.952 224.712C294.165 225.085 294.272 225.555 294.272 226.12C294.272 226.675 294.139 227.187 293.872 227.656C293.605 228.115 293.2 228.488 292.656 228.776C292.123 229.053 291.445 229.192 290.624 229.192ZM302.466 229V218.408H299.074V217.8H306.562V218.408H303.186V229H302.466ZM312.295 229V217.8H315.431C316.295 217.8 316.993 217.939 317.527 218.216C318.071 218.493 318.465 218.872 318.711 219.352C318.967 219.832 319.095 220.376 319.095 220.984C319.095 221.603 318.967 222.157 318.711 222.648C318.455 223.128 318.055 223.507 317.511 223.784C316.977 224.051 316.268 224.184 315.383 224.184H313.015V229H312.295ZM318.359 229L315.766 223.912H316.599L319.223 229H318.359ZM313.015 223.592H315.399C316.369 223.592 317.1 223.368 317.591 222.92C318.092 222.472 318.343 221.827 318.343 220.984C318.343 220.163 318.097 219.533 317.607 219.096C317.116 218.648 316.38 218.424 315.399 218.424H313.015V223.592ZM324.575 229L328.687 217.8H329.455L333.519 229H332.751L329.055 218.728L325.327 229H324.575ZM326.319 225.448L326.559 224.84H331.551L331.791 225.448H326.319ZM340.497 229V218.408H337.105V217.8H344.593V218.408H341.217V229H340.497ZM350.326 229V217.8H356.902V218.408H351.046V223.08H356.422V223.704H351.046V228.392H356.902V229H350.326ZM367.748 229.192C366.713 229.192 365.812 228.947 365.044 228.456C364.276 227.965 363.678 227.288 363.252 226.424C362.825 225.549 362.612 224.536 362.612 223.384C362.612 222.243 362.83 221.24 363.268 220.376C363.705 219.501 364.318 218.824 365.108 218.344C365.908 217.853 366.841 217.608 367.908 217.608C369.113 217.608 370.116 217.896 370.916 218.472C371.716 219.048 372.249 219.869 372.516 220.936H371.684C371.481 220.136 371.065 219.496 370.436 219.016C369.806 218.525 368.964 218.28 367.908 218.28C367.012 218.28 366.222 218.488 365.54 218.904C364.857 219.309 364.324 219.891 363.94 220.648C363.556 221.405 363.364 222.317 363.364 223.384C363.364 224.429 363.55 225.341 363.924 226.12C364.297 226.888 364.809 227.48 365.46 227.896C366.121 228.312 366.884 228.52 367.748 228.52C369.092 228.52 370.11 228.109 370.804 227.288C371.497 226.456 371.886 225.277 371.972 223.752H368.356V223.16H372.724V229H372.084L371.956 226.472C371.7 227.059 371.374 227.555 370.98 227.96C370.596 228.365 370.137 228.675 369.604 228.888C369.07 229.091 368.452 229.192 367.748 229.192ZM378.935 229V217.8H379.655V229H378.935ZM390.875 229.192C389.819 229.192 388.896 228.952 388.107 228.472C387.328 227.981 386.725 227.304 386.299 226.44C385.872 225.565 385.659 224.552 385.659 223.4C385.659 222.248 385.872 221.24 386.299 220.376C386.725 219.501 387.328 218.824 388.107 218.344C388.896 217.853 389.819 217.608 390.875 217.608C392.101 217.608 393.088 217.891 393.835 218.456C394.581 219.011 395.072 219.8 395.307 220.824H394.507C394.315 220.056 393.92 219.437 393.323 218.968C392.736 218.499 391.92 218.264 390.875 218.264C389.989 218.264 389.211 218.467 388.539 218.872C387.877 219.277 387.355 219.864 386.971 220.632C386.597 221.4 386.411 222.323 386.411 223.4C386.411 224.477 386.597 225.4 386.971 226.168C387.355 226.925 387.877 227.512 388.539 227.928C389.211 228.333 389.989 228.536 390.875 228.536C391.909 228.536 392.725 228.301 393.323 227.832C393.931 227.352 394.325 226.728 394.507 225.96H395.307C395.072 226.984 394.581 227.779 393.835 228.344C393.088 228.909 392.101 229.192 390.875 229.192ZM408.622 229L412.734 217.8H413.502L417.566 229H416.798L413.102 218.728L409.374 229H408.622ZM410.366 225.448L410.606 224.84H415.598L415.838 225.448H410.366ZM423.482 229V217.8H426.426C427.749 217.8 428.831 218.024 429.674 218.472C430.527 218.909 431.157 219.549 431.562 220.392C431.978 221.235 432.186 222.253 432.186 223.448C432.186 224.557 431.989 225.528 431.594 226.36C431.21 227.192 430.602 227.843 429.77 228.312C428.938 228.771 427.845 229 426.49 229H423.482ZM424.202 228.392H426.474C427.647 228.392 428.597 228.195 429.322 227.8C430.047 227.395 430.581 226.824 430.922 226.088C431.263 225.352 431.434 224.472 431.434 223.448C431.434 222.413 431.263 221.523 430.922 220.776C430.591 220.019 430.063 219.437 429.338 219.032C428.623 218.616 427.669 218.408 426.474 218.408H424.202V228.392ZM441.205 229L436.869 217.8H437.653L441.621 228.184L445.621 217.8H446.405L442.037 229H441.205ZM452.013 229V217.8H452.733V229H452.013ZM462.593 229.192C461.729 229.192 461.003 229.037 460.417 228.728C459.841 228.419 459.403 227.997 459.105 227.464C458.817 226.92 458.678 226.312 458.689 225.64H459.441C459.441 226.163 459.547 226.648 459.761 227.096C459.985 227.533 460.326 227.885 460.785 228.152C461.254 228.419 461.851 228.552 462.577 228.552C463.238 228.552 463.777 228.445 464.193 228.232C464.619 228.019 464.939 227.731 465.153 227.368C465.366 227.005 465.473 226.6 465.473 226.152C465.473 225.608 465.35 225.176 465.105 224.856C464.87 224.525 464.555 224.259 464.161 224.056C463.777 223.853 463.345 223.683 462.865 223.544C462.395 223.395 461.931 223.235 461.473 223.064C460.726 222.797 460.155 222.461 459.761 222.056C459.366 221.64 459.169 221.091 459.169 220.408C459.169 219.885 459.291 219.416 459.537 219C459.793 218.573 460.166 218.237 460.657 217.992C461.147 217.736 461.745 217.608 462.449 217.608C463.099 217.608 463.675 217.725 464.177 217.96C464.678 218.195 465.073 218.536 465.361 218.984C465.649 219.421 465.793 219.965 465.793 220.616H465.025C465.025 220.115 464.918 219.688 464.705 219.336C464.502 218.984 464.203 218.717 463.809 218.536C463.425 218.344 462.966 218.248 462.433 218.248C461.867 218.248 461.398 218.344 461.025 218.536C460.651 218.717 460.374 218.968 460.193 219.288C460.011 219.597 459.921 219.955 459.921 220.36C459.921 220.819 460.033 221.187 460.257 221.464C460.481 221.741 460.779 221.971 461.153 222.152C461.537 222.323 461.963 222.483 462.433 222.632C462.902 222.781 463.382 222.952 463.873 223.144C464.321 223.325 464.721 223.539 465.073 223.784C465.435 224.029 465.718 224.339 465.921 224.712C466.134 225.085 466.241 225.555 466.241 226.12C466.241 226.675 466.107 227.187 465.841 227.656C465.574 228.115 465.169 228.488 464.625 228.776C464.091 229.053 463.414 229.192 462.593 229.192ZM477.065 229.192C475.998 229.192 475.065 228.952 474.265 228.472C473.465 227.981 472.841 227.304 472.393 226.44C471.945 225.565 471.721 224.552 471.721 223.4C471.721 222.259 471.945 221.256 472.393 220.392C472.841 219.517 473.465 218.835 474.265 218.344C475.065 217.853 475.998 217.608 477.065 217.608C478.153 217.608 479.097 217.853 479.897 218.344C480.708 218.835 481.332 219.517 481.769 220.392C482.206 221.256 482.425 222.259 482.425 223.4C482.425 224.552 482.206 225.565 481.769 226.44C481.332 227.304 480.708 227.981 479.897 228.472C479.097 228.952 478.153 229.192 477.065 229.192ZM477.081 228.536C477.966 228.536 478.756 228.333 479.449 227.928C480.142 227.523 480.686 226.936 481.081 226.168C481.476 225.4 481.673 224.477 481.673 223.4C481.673 222.323 481.476 221.4 481.081 220.632C480.686 219.864 480.142 219.277 479.449 218.872C478.756 218.467 477.966 218.264 477.081 218.264C476.196 218.264 475.406 218.467 474.713 218.872C474.02 219.277 473.47 219.864 473.065 220.632C472.67 221.4 472.473 222.323 472.473 223.4C472.473 224.477 472.67 225.4 473.065 226.168C473.47 226.936 474.02 227.523 474.713 227.928C475.406 228.333 476.196 228.536 477.081 228.536ZM488.435 229V217.8H491.571C492.435 217.8 493.134 217.939 493.667 218.216C494.211 218.493 494.606 218.872 494.851 219.352C495.107 219.832 495.235 220.376 495.235 220.984C495.235 221.603 495.107 222.157 494.851 222.648C494.595 223.128 494.195 223.507 493.651 223.784C493.118 224.051 492.408 224.184 491.523 224.184H489.155V229H488.435ZM494.499 229L491.907 223.912H492.739L495.363 229H494.499ZM489.155 223.592H491.539C492.51 223.592 493.24 223.368 493.731 222.92C494.232 222.472 494.483 221.827 494.483 220.984C494.483 220.163 494.238 219.533 493.747 219.096C493.256 218.648 492.52 218.424 491.539 218.424H489.155V223.592ZM503.576 229V224.328L500.024 217.8H500.824L504.04 223.816H503.848L506.984 217.8H507.8L504.296 224.328V229H503.576Z" fill="black"/>
<path d="M288.448 228.728L287.975 229.609L287.982 229.613L288.448 228.728ZM287.136 227.464L286.252 227.932L286.258 227.942L286.263 227.953L287.136 227.464ZM286.72 225.64V224.64H285.736L285.72 225.624L286.72 225.64ZM287.472 225.64H288.472V224.64H287.472V225.64ZM287.792 227.096L286.889 227.526L286.895 227.539L286.902 227.552L287.792 227.096ZM288.816 228.152L288.313 229.017L288.322 229.021L288.816 228.152ZM292.224 228.232L291.777 227.338L291.768 227.342L292.224 228.232ZM293.184 227.368L294.046 227.875V227.875L293.184 227.368ZM293.136 224.856L292.32 225.435L292.331 225.45L292.342 225.464L293.136 224.856ZM292.192 224.056L291.725 224.94L291.735 224.946L292.192 224.056ZM290.896 223.544L290.593 224.497L290.606 224.501L290.618 224.505L290.896 223.544ZM289.504 223.064L289.853 222.127L289.84 222.122L289.504 223.064ZM287.792 222.056L287.066 222.744L287.076 222.754L287.792 222.056ZM287.568 219L286.71 218.485L286.707 218.492L287.568 219ZM288.688 217.992L289.135 218.886L289.143 218.883L289.151 218.879L288.688 217.992ZM292.208 217.96L292.632 217.054H292.632L292.208 217.96ZM293.392 218.984L292.551 219.525L292.557 219.534L293.392 218.984ZM293.824 220.616V221.616H294.824V220.616H293.824ZM293.056 220.616H292.056V221.616H293.056V220.616ZM292.736 219.336L291.869 219.835L291.875 219.845L291.881 219.854L292.736 219.336ZM291.84 218.536L291.393 219.43L291.408 219.438L291.422 219.445L291.84 218.536ZM289.056 218.536L289.493 219.436L289.503 219.431L289.513 219.425L289.056 218.536ZM288.224 219.288L289.087 219.794L289.09 219.787L289.094 219.781L288.224 219.288ZM289.184 222.152L288.747 223.052L288.762 223.059L288.778 223.066L289.184 222.152ZM290.464 222.632L290.767 221.679H290.767L290.464 222.632ZM291.904 223.144L292.279 222.217L292.268 222.213L291.904 223.144ZM293.104 223.784L292.532 224.604L292.544 224.612L293.104 223.784ZM293.952 224.712L293.073 225.189L293.078 225.199L293.084 225.208L293.952 224.712ZM293.872 227.656L294.737 228.159L294.741 228.15L293.872 227.656ZM292.656 228.776L293.117 229.663L293.124 229.66L292.656 228.776ZM290.624 229.192V228.192C289.875 228.192 289.32 228.057 288.914 227.843L288.448 228.728L287.982 229.613C288.749 230.017 289.645 230.192 290.624 230.192V229.192ZM288.448 228.728L288.921 227.847C288.501 227.621 288.208 227.331 288.009 226.975L287.136 227.464L286.263 227.953C286.662 228.664 287.243 229.216 287.975 229.609L288.448 228.728ZM287.136 227.464L288.02 226.996C287.818 226.614 287.712 226.175 287.72 225.656L286.72 225.64L285.72 225.624C285.707 226.449 285.878 227.226 286.252 227.932L287.136 227.464ZM286.72 225.64V226.64H287.472V225.64V224.64H286.72V225.64ZM287.472 225.64H286.472C286.472 226.303 286.608 226.936 286.889 227.526L287.792 227.096L288.695 226.666C288.549 226.36 288.472 226.022 288.472 225.64H287.472ZM287.792 227.096L286.902 227.552C287.22 228.173 287.703 228.662 288.313 229.017L288.816 228.152L289.319 227.287C289.012 227.109 288.812 226.893 288.682 226.64L287.792 227.096ZM288.816 228.152L288.322 229.021C288.985 229.398 289.767 229.552 290.608 229.552V228.552V227.552C289.999 227.552 289.586 227.439 289.31 227.283L288.816 228.152ZM290.608 228.552V229.552C291.366 229.552 292.077 229.431 292.68 229.122L292.224 228.232L291.768 227.342C291.539 227.459 291.172 227.552 290.608 227.552V228.552ZM292.224 228.232L292.671 229.126C293.247 228.839 293.722 228.426 294.046 227.875L293.184 227.368L292.322 226.861C292.219 227.036 292.054 227.199 291.777 227.338L292.224 228.232ZM293.184 227.368L294.046 227.875C294.356 227.349 294.504 226.766 294.504 226.152H293.504H292.504C292.504 226.434 292.439 226.662 292.322 226.861L293.184 227.368ZM293.504 226.152H294.504C294.504 225.464 294.349 224.794 293.93 224.248L293.136 224.856L292.342 225.464C292.414 225.558 292.504 225.752 292.504 226.152H293.504ZM293.136 224.856L293.952 224.277C293.615 223.804 293.173 223.435 292.649 223.166L292.192 224.056L291.735 224.946C292.001 225.082 292.187 225.247 292.32 225.435L293.136 224.856ZM292.192 224.056L292.659 223.172C292.206 222.933 291.709 222.738 291.174 222.583L290.896 223.544L290.618 224.505C291.043 224.627 291.41 224.774 291.725 224.94L292.192 224.056ZM290.896 223.544L291.199 222.591C290.745 222.447 290.296 222.292 289.853 222.127L289.504 223.064L289.155 224.001C289.629 224.178 290.108 224.343 290.593 224.497L290.896 223.544ZM289.504 223.064L289.84 222.122C289.183 221.888 288.763 221.62 288.508 221.358L287.792 222.056L287.076 222.754C287.611 223.303 288.331 223.707 289.168 224.006L289.504 223.064ZM287.792 222.056L288.517 221.368C288.332 221.172 288.2 220.886 288.2 220.408H287.2H286.2C286.2 221.295 286.463 222.108 287.067 222.744L287.792 222.056ZM287.2 220.408H288.2C288.2 220.049 288.282 219.758 288.429 219.508L287.568 219L286.707 218.492C286.363 219.074 286.2 219.722 286.2 220.408H287.2ZM287.568 219L288.425 219.514C288.574 219.267 288.797 219.056 289.135 218.886L288.688 217.992L288.241 217.098C287.598 217.419 287.074 217.879 286.711 218.486L287.568 219ZM288.688 217.992L289.151 218.879C289.465 218.715 289.894 218.608 290.48 218.608V217.608V216.608C289.658 216.608 288.892 216.757 288.225 217.105L288.688 217.992ZM290.48 217.608V218.608C291.01 218.608 291.437 218.703 291.784 218.866L292.208 217.96L292.632 217.054C291.977 216.748 291.252 216.608 290.48 216.608V217.608ZM292.208 217.96L291.784 218.866C292.122 219.024 292.369 219.242 292.551 219.525L293.392 218.984L294.233 218.443C293.839 217.83 293.297 217.366 292.632 217.054L292.208 217.96ZM293.392 218.984L292.557 219.534C292.714 219.772 292.824 220.113 292.824 220.616H293.824H294.824C294.824 219.817 294.646 219.07 294.227 218.434L293.392 218.984ZM293.824 220.616V219.616H293.056V220.616V221.616H293.824V220.616ZM293.056 220.616H294.056C294.056 219.972 293.918 219.357 293.591 218.818L292.736 219.336L291.881 219.854C291.981 220.019 292.056 220.258 292.056 220.616H293.056ZM292.736 219.336L293.603 218.837C293.289 218.292 292.827 217.889 292.258 217.627L291.84 218.536L291.422 219.445C291.642 219.546 291.778 219.676 291.869 219.835L292.736 219.336ZM291.84 218.536L292.287 217.642C291.735 217.365 291.116 217.248 290.464 217.248V218.248V219.248C290.879 219.248 291.177 219.323 291.393 219.43L291.84 218.536ZM290.464 218.248V217.248C289.792 217.248 289.154 217.361 288.599 217.647L289.056 218.536L289.513 219.425C289.705 219.327 290.005 219.248 290.464 219.248V218.248ZM289.056 218.536L288.619 217.636C288.088 217.895 287.648 218.277 287.354 218.795L288.224 219.288L289.094 219.781C289.163 219.659 289.278 219.54 289.493 219.436L289.056 218.536ZM288.224 219.288L287.361 218.782C287.079 219.264 286.952 219.801 286.952 220.36H287.952H288.952C288.952 220.109 289.007 219.93 289.087 219.794L288.224 219.288ZM287.952 220.36H286.952C286.952 220.981 287.106 221.591 287.51 222.092L288.288 221.464L289.066 220.836C289.022 220.782 288.952 220.656 288.952 220.36H287.952ZM288.288 221.464L287.51 222.092C287.84 222.501 288.263 222.816 288.747 223.052L289.184 222.152L289.621 221.252C289.358 221.125 289.184 220.981 289.066 220.836L288.288 221.464ZM289.184 222.152L288.778 223.066C289.201 223.254 289.662 223.426 290.161 223.585L290.464 222.632L290.767 221.679C290.327 221.539 289.935 221.392 289.59 221.238L289.184 222.152ZM290.464 222.632L290.161 223.585C290.608 223.727 291.068 223.891 291.54 224.075L291.904 223.144L292.268 222.213C291.759 222.013 291.259 221.835 290.767 221.679L290.464 222.632ZM291.904 223.144L291.529 224.071C291.916 224.228 292.249 224.407 292.532 224.604L293.104 223.784L293.676 222.964C293.255 222.671 292.788 222.423 292.279 222.217L291.904 223.144ZM293.104 223.784L292.544 224.612C292.778 224.771 292.949 224.961 293.073 225.189L293.952 224.712L294.831 224.235C294.549 223.716 294.156 223.288 293.664 222.956L293.104 223.784ZM293.952 224.712L293.084 225.208C293.188 225.39 293.272 225.676 293.272 226.12H294.272H295.272C295.272 225.434 295.143 224.781 294.82 224.216L293.952 224.712ZM294.272 226.12H293.272C293.272 226.506 293.181 226.848 293.003 227.162L293.872 227.656L294.741 228.15C295.096 227.526 295.272 226.843 295.272 226.12H294.272ZM293.872 227.656L293.007 227.153C292.849 227.426 292.594 227.677 292.188 227.892L292.656 228.776L293.124 229.66C293.806 229.299 294.362 228.803 294.737 228.159L293.872 227.656ZM292.656 228.776L292.195 227.889C291.846 228.07 291.341 228.192 290.624 228.192V229.192V230.192C291.55 230.192 292.399 230.037 293.117 229.663L292.656 228.776ZM302.466 229H301.466V230H302.466V229ZM302.466 218.408H303.466V217.408H302.466V218.408ZM299.074 218.408H298.074V219.408H299.074V218.408ZM299.074 217.8V216.8H298.074V217.8H299.074ZM306.562 217.8H307.562V216.8H306.562V217.8ZM306.562 218.408V219.408H307.562V218.408H306.562ZM303.186 218.408V217.408H302.186V218.408H303.186ZM303.186 229V230H304.186V229H303.186ZM302.466 229H303.466V218.408H302.466H301.466V229H302.466ZM302.466 218.408V217.408H299.074V218.408V219.408H302.466V218.408ZM299.074 218.408H300.074V217.8H299.074H298.074V218.408H299.074ZM299.074 217.8V218.8H306.562V217.8V216.8H299.074V217.8ZM306.562 217.8H305.562V218.408H306.562H307.562V217.8H306.562ZM306.562 218.408V217.408H303.186V218.408V219.408H306.562V218.408ZM303.186 218.408H302.186V229H303.186H304.186V218.408H303.186ZM303.186 229V228H302.466V229V230H303.186V229ZM312.295 229H311.295V230H312.295V229ZM312.295 217.8V216.8H311.295V217.8H312.295ZM317.527 218.216L317.065 219.103L317.072 219.107L317.527 218.216ZM318.71 219.352L317.82 219.807L317.824 219.815L317.828 219.823L318.71 219.352ZM318.71 222.648L319.593 223.119L319.597 223.111L318.71 222.648ZM317.51 223.784L317.958 224.678L317.965 224.675L317.51 223.784ZM313.014 224.184V223.184H312.014V224.184H313.014ZM313.014 229V230H314.014V229H313.014ZM318.359 229L317.467 229.454L317.746 230H318.359V229ZM315.767 223.912V222.912H314.135L314.875 224.366L315.767 223.912ZM316.598 223.912L317.487 223.454L317.208 222.912H316.598V223.912ZM319.222 229V230H320.863L320.111 228.542L319.222 229ZM313.014 223.592H312.014V224.592H313.014V223.592ZM317.59 222.92L316.924 222.174L316.916 222.182L317.59 222.92ZM317.607 219.096L316.932 219.835L316.941 219.843L317.607 219.096ZM313.014 218.424V217.424H312.014V218.424H313.014ZM312.295 229H313.295V217.8H312.295H311.295V229H312.295ZM312.295 217.8V218.8H315.431V217.8V216.8H312.295V217.8ZM315.431 217.8V218.8C316.199 218.8 316.723 218.925 317.065 219.103L317.527 218.216L317.988 217.329C317.263 216.952 316.39 216.8 315.431 216.8V217.8ZM317.527 218.216L317.072 219.107C317.455 219.302 317.683 219.539 317.82 219.807L318.71 219.352L319.601 218.897C319.247 218.205 318.686 217.685 317.981 217.325L317.527 218.216ZM318.71 219.352L317.828 219.823C317.998 220.141 318.095 220.521 318.095 220.984H319.095H320.095C320.095 220.231 319.935 219.523 319.593 218.881L318.71 219.352ZM319.095 220.984H318.095C318.095 221.461 317.997 221.854 317.824 222.185L318.71 222.648L319.597 223.111C319.936 222.461 320.095 221.744 320.095 220.984H319.095ZM318.71 222.648L317.828 222.177C317.68 222.455 317.441 222.697 317.056 222.893L317.51 223.784L317.965 224.675C318.668 224.316 319.229 223.801 319.593 223.119L318.71 222.648ZM317.51 223.784L317.063 222.89C316.72 223.061 316.182 223.184 315.382 223.184V224.184V225.184C316.354 225.184 317.235 225.04 317.958 224.678L317.51 223.784ZM315.382 224.184V223.184H313.014V224.184V225.184H315.382V224.184ZM313.014 224.184H312.014V229H313.014H314.014V224.184H313.014ZM313.014 229V228H312.295V229V230H313.014V229ZM318.359 229L319.25 228.546L316.658 223.458L315.767 223.912L314.875 224.366L317.467 229.454L318.359 229ZM315.767 223.912V224.912H316.598V223.912V222.912H315.767V223.912ZM316.598 223.912L315.71 224.37L318.334 229.458L319.222 229L320.111 228.542L317.487 223.454L316.598 223.912ZM319.222 229V228H318.359V229V230H319.222V229ZM313.014 223.592V224.592H315.399V223.592V222.592H313.014V223.592ZM315.399 223.592V224.592C316.505 224.592 317.52 224.338 318.265 223.658L317.59 222.92L316.916 222.182C316.679 222.398 316.233 222.592 315.399 222.592V223.592ZM317.59 222.92L318.257 223.666C319.022 222.982 319.342 222.034 319.342 220.984H318.342H317.343C317.343 221.619 317.162 221.962 316.924 222.174L317.59 222.92ZM318.342 220.984H319.342C319.342 219.954 319.027 219.022 318.272 218.349L317.607 219.096L316.941 219.843C317.168 220.044 317.343 220.371 317.343 220.984H318.342ZM317.607 219.096L318.281 218.358C317.535 217.676 316.513 217.424 315.399 217.424V218.424V219.424C316.247 219.424 316.697 219.62 316.932 219.834L317.607 219.096ZM315.399 218.424V217.424H313.014V218.424V219.424H315.399V218.424ZM313.014 218.424H312.014V223.592H313.014H314.014V218.424H313.014ZM324.575 229L323.636 228.655L323.142 230H324.575V229ZM328.687 217.8V216.8H327.989L327.748 217.455L328.687 217.8ZM329.455 217.8L330.395 217.459L330.156 216.8H329.455V217.8ZM333.519 229V230H334.946L334.459 228.659L333.519 229ZM332.751 229L331.81 229.339L332.048 230H332.751V229ZM329.055 218.728L329.996 218.389L329.059 215.786L328.115 218.387L329.055 218.728ZM325.327 229V230H326.028L326.267 229.341L325.327 229ZM326.319 225.448L325.389 225.081L324.849 226.448H326.319V225.448ZM326.559 224.84V223.84H325.879L325.629 224.473L326.559 224.84ZM331.551 224.84L332.481 224.473L332.231 223.84H331.551V224.84ZM331.791 225.448V226.448H333.261L332.721 225.081L331.791 225.448ZM324.575 229L325.514 229.345L329.626 218.145L328.687 217.8L327.748 217.455L323.636 228.655L324.575 229ZM328.687 217.8V218.8H329.455V217.8V216.8H328.687V217.8ZM329.455 217.8L328.515 218.141L332.579 229.341L333.519 229L334.459 228.659L330.395 217.459L329.455 217.8ZM333.519 229V228H332.751V229V230H333.519V229ZM332.751 229L333.692 228.661L329.996 218.389L329.055 218.728L328.114 219.067L331.81 229.339L332.751 229ZM329.055 218.728L328.115 218.387L324.387 228.659L325.327 229L326.267 229.341L329.995 219.069L329.055 218.728ZM325.327 229V228H324.575V229V230H325.327V229ZM326.319 225.448L327.249 225.815L327.489 225.207L326.559 224.84L325.629 224.473L325.389 225.081L326.319 225.448ZM326.559 224.84V225.84H331.551V224.84V223.84H326.559V224.84ZM331.551 224.84L330.621 225.207L330.861 225.815L331.791 225.448L332.721 225.081L332.481 224.473L331.551 224.84ZM331.791 225.448V224.448H326.319V225.448V226.448H331.791V225.448ZM340.497 229H339.497V230H340.497V229ZM340.497 218.408H341.497V217.408H340.497V218.408ZM337.105 218.408H336.105V219.408H337.105V218.408ZM337.105 217.8V216.8H336.105V217.8H337.105ZM344.593 217.8H345.593V216.8H344.593V217.8ZM344.593 218.408V219.408H345.593V218.408H344.593ZM341.217 218.408V217.408H340.217V218.408H341.217ZM341.217 229V230H342.217V229H341.217ZM340.497 229H341.497V218.408H340.497H339.497V229H340.497ZM340.497 218.408V217.408H337.105V218.408V219.408H340.497V218.408ZM337.105 218.408H338.105V217.8H337.105H336.105V218.408H337.105ZM337.105 217.8V218.8H344.593V217.8V216.8H337.105V217.8ZM344.593 217.8H343.593V218.408H344.593H345.593V217.8H344.593ZM344.593 218.408V217.408H341.217V218.408V219.408H344.593V218.408ZM341.217 218.408H340.217V229H341.217H342.217V218.408H341.217ZM341.217 229V228H340.497V229V230H341.217V229ZM350.326 229H349.326V230H350.326V229ZM350.326 217.8V216.8H349.326V217.8H350.326ZM356.902 217.8H357.902V216.8H356.902V217.8ZM356.902 218.408V219.408H357.902V218.408H356.902ZM351.046 218.408V217.408H350.046V218.408H351.046ZM351.046 223.08H350.046V224.08H351.046V223.08ZM356.422 223.08H357.422V222.08H356.422V223.08ZM356.422 223.704V224.704H357.422V223.704H356.422ZM351.046 223.704V222.704H350.046V223.704H351.046ZM351.046 228.392H350.046V229.392H351.046V228.392ZM356.902 228.392H357.902V227.392H356.902V228.392ZM356.902 229V230H357.902V229H356.902ZM350.326 229H351.326V217.8H350.326H349.326V229H350.326ZM350.326 217.8V218.8H356.902V217.8V216.8H350.326V217.8ZM356.902 217.8H355.902V218.408H356.902H357.902V217.8H356.902ZM356.902 218.408V217.408H351.046V218.408V219.408H356.902V218.408ZM351.046 218.408H350.046V223.08H351.046H352.046V218.408H351.046ZM351.046 223.08V224.08H356.422V223.08V222.08H351.046V223.08ZM356.422 223.08H355.422V223.704H356.422H357.422V223.08H356.422ZM356.422 223.704V222.704H351.046V223.704V224.704H356.422V223.704ZM351.046 223.704H350.046V228.392H351.046H352.046V223.704H351.046ZM351.046 228.392V229.392H356.902V228.392V227.392H351.046V228.392ZM356.902 228.392H355.902V229H356.902H357.902V228.392H356.902ZM356.902 229V228H350.326V229V230H356.902V229ZM365.044 228.456L364.505 229.299V229.299L365.044 228.456ZM363.252 226.424L362.353 226.862L362.355 226.867L363.252 226.424ZM363.268 220.376L364.16 220.828L364.162 220.823L363.268 220.376ZM365.108 218.344L365.627 219.198L365.631 219.196L365.108 218.344ZM370.916 218.472L371.5 217.66V217.66L370.916 218.472ZM372.516 220.936V221.936H373.797L373.486 220.693L372.516 220.936ZM371.684 220.936L370.714 221.182L370.905 221.936H371.684V220.936ZM370.436 219.016L369.821 219.805L369.829 219.811L370.436 219.016ZM365.54 218.904L366.05 219.764L366.06 219.758L365.54 218.904ZM363.94 220.648L364.832 221.1V221.1L363.94 220.648ZM363.924 226.12L363.022 226.552L363.024 226.557L363.924 226.12ZM365.46 227.896L364.921 228.739L364.927 228.742L365.46 227.896ZM370.804 227.288L371.568 227.933L371.572 227.928L370.804 227.288ZM371.972 223.752L372.97 223.808L373.029 222.752H371.972V223.752ZM368.356 223.752H367.356V224.752H368.356V223.752ZM368.356 223.16V222.16H367.356V223.16H368.356ZM372.724 223.16H373.724V222.16H372.724V223.16ZM372.724 229V230H373.724V229H372.724ZM372.084 229L371.085 229.051L371.133 230H372.084V229ZM371.956 226.472L372.954 226.421L371.039 226.072L371.956 226.472ZM370.98 227.96L370.263 227.262L370.254 227.272L370.98 227.96ZM369.604 228.888L369.959 229.823L369.967 229.82L369.975 229.816L369.604 228.888ZM367.748 229.192V228.192C366.877 228.192 366.168 227.988 365.582 227.613L365.044 228.456L364.505 229.299C365.455 229.905 366.549 230.192 367.748 230.192V229.192ZM365.044 228.456L365.582 227.613C364.977 227.226 364.499 226.692 364.148 225.981L363.252 226.424L362.355 226.867C362.858 227.884 363.575 228.704 364.505 229.299L365.044 228.456ZM363.252 226.424L364.151 225.986C363.802 225.27 363.612 224.412 363.612 223.384H362.612H361.612C361.612 224.66 361.849 225.828 362.353 226.862L363.252 226.424ZM362.612 223.384H363.612C363.612 222.372 363.805 221.529 364.16 220.828L363.268 220.376L362.376 219.924C361.856 220.951 361.612 222.114 361.612 223.384H362.612ZM363.268 220.376L364.162 220.823C364.521 220.107 365.008 219.575 365.627 219.198L365.108 218.344L364.588 217.49C363.628 218.073 362.89 218.896 362.373 219.929L363.268 220.376ZM365.108 218.344L365.631 219.196C366.253 218.815 367 218.608 367.908 218.608V217.608V216.608C366.682 216.608 365.563 216.892 364.585 217.492L365.108 218.344ZM367.908 217.608V218.608C368.951 218.608 369.737 218.855 370.331 219.284L370.916 218.472L371.5 217.66C370.495 216.937 369.275 216.608 367.908 216.608V217.608ZM370.916 218.472L370.331 219.284C370.917 219.705 371.329 220.313 371.546 221.179L372.516 220.936L373.486 220.693C373.169 219.426 372.514 218.391 371.5 217.66L370.916 218.472ZM372.516 220.936V219.936H371.684V220.936V221.936H372.516V220.936ZM371.684 220.936L372.653 220.69C372.398 219.682 371.859 218.844 371.042 218.221L370.436 219.016L369.829 219.811C370.271 220.148 370.565 220.59 370.714 221.182L371.684 220.936ZM370.436 219.016L371.051 218.227C370.196 217.561 369.114 217.28 367.908 217.28V218.28V219.28C368.813 219.28 369.417 219.489 369.821 219.805L370.436 219.016ZM367.908 218.28V217.28C366.851 217.28 365.877 217.527 365.019 218.05L365.54 218.904L366.06 219.758C366.568 219.449 367.173 219.28 367.908 219.28V218.28ZM365.54 218.904L365.029 218.044C364.172 218.553 363.511 219.281 363.048 220.196L363.94 220.648L364.832 221.1C365.136 220.5 365.542 220.065 366.05 219.764L365.54 218.904ZM363.94 220.648L363.048 220.196C362.577 221.125 362.364 222.199 362.364 223.384H363.364H364.364C364.364 222.435 364.535 221.686 364.832 221.1L363.94 220.648ZM363.364 223.384H362.364C362.364 224.548 362.572 225.613 363.022 226.552L363.924 226.12L364.825 225.688C364.529 225.069 364.364 224.311 364.364 223.384H363.364ZM363.924 226.12L363.024 226.557C363.47 227.473 364.099 228.213 364.921 228.739L365.46 227.896L365.998 227.053C365.519 226.747 365.125 226.303 364.823 225.683L363.924 226.12ZM365.46 227.896L364.927 228.742C365.765 229.269 366.716 229.52 367.748 229.52V228.52V227.52C367.052 227.52 366.477 227.355 365.992 227.05L365.46 227.896ZM367.748 228.52V229.52C369.306 229.52 370.638 229.034 371.568 227.933L370.804 227.288L370.04 226.643C369.583 227.184 368.877 227.52 367.748 227.52V228.52ZM370.804 227.288L371.572 227.928C372.449 226.876 372.878 225.462 372.97 223.808L371.972 223.752L370.973 223.696C370.895 225.093 370.545 226.036 370.036 226.648L370.804 227.288ZM371.972 223.752V222.752H368.356V223.752V224.752H371.972V223.752ZM368.356 223.752H369.356V223.16H368.356H367.356V223.752H368.356ZM368.356 223.16V224.16H372.724V223.16V222.16H368.356V223.16ZM372.724 223.16H371.724V229H372.724H373.724V223.16H372.724ZM372.724 229V228H372.084V229V230H372.724V229ZM372.084 229L373.082 228.949L372.954 226.421L371.956 226.472L370.957 226.523L371.085 229.051L372.084 229ZM371.956 226.472L371.039 226.072C370.825 226.563 370.564 226.954 370.263 227.262L370.98 227.96L371.696 228.658C372.185 228.155 372.574 227.555 372.872 226.872L371.956 226.472ZM370.98 227.96L370.254 227.272C369.972 227.57 369.635 227.798 369.232 227.96L369.604 228.888L369.975 229.816C370.639 229.551 371.219 229.161 371.706 228.648L370.98 227.96ZM369.604 228.888L369.249 227.953C368.852 228.104 368.358 228.192 367.748 228.192V229.192V230.192C368.546 230.192 369.289 230.077 369.959 229.823L369.604 228.888ZM378.935 229H377.935V230H378.935V229ZM378.935 217.8V216.8H377.935V217.8H378.935ZM379.655 217.8H380.655V216.8H379.655V217.8ZM379.655 229V230H380.655V229H379.655ZM378.935 229H379.935V217.8H378.935H377.935V229H378.935ZM378.935 217.8V218.8H379.655V217.8V216.8H378.935V217.8ZM379.655 217.8H378.655V229H379.655H380.655V217.8H379.655ZM379.655 229V228H378.935V229V230H379.655V229ZM388.107 228.472L387.574 229.318L387.58 229.322L387.587 229.326L388.107 228.472ZM386.299 226.44L385.4 226.878L385.402 226.883L386.299 226.44ZM386.299 220.376L387.195 220.819L387.197 220.814L386.299 220.376ZM388.107 218.344L388.631 219.195L388.635 219.193L388.107 218.344ZM393.835 218.456L393.231 219.253L393.238 219.259L393.835 218.456ZM395.307 220.824V221.824H396.562L396.281 220.601L395.307 220.824ZM394.507 220.824L393.536 221.067L393.726 221.824H394.507V220.824ZM393.323 218.968L392.698 219.749L392.705 219.754L393.323 218.968ZM388.539 218.872L388.022 218.016L388.016 218.019L388.539 218.872ZM386.971 220.632L386.076 220.185L386.071 220.195L386.971 220.632ZM386.971 226.168L386.071 226.605L386.075 226.613L386.079 226.62L386.971 226.168ZM388.539 227.928L388.006 228.774L388.014 228.779L388.022 228.784L388.539 227.928ZM393.323 227.832L393.94 228.618L393.942 228.617L393.323 227.832ZM394.507 225.96V224.96H393.715L393.533 225.73L394.507 225.96ZM395.307 225.96L396.281 226.183L396.562 224.96H395.307V225.96ZM393.835 228.344L394.438 229.141V229.141L393.835 228.344ZM390.875 229.192V228.192C389.975 228.192 389.238 227.989 388.626 227.618L388.107 228.472L387.587 229.326C388.554 229.915 389.662 230.192 390.875 230.192V229.192ZM388.107 228.472L388.64 227.626C388.025 227.238 387.544 226.704 387.195 225.997L386.299 226.44L385.402 226.883C385.906 227.904 386.631 228.724 387.574 229.318L388.107 228.472ZM386.299 226.44L387.197 226.002C386.849 225.286 386.659 224.428 386.659 223.4H385.659H384.659C384.659 224.676 384.895 225.844 385.4 226.878L386.299 226.44ZM385.659 223.4H386.659C386.659 222.372 386.849 221.521 387.195 220.819L386.299 220.376L385.402 219.933C384.895 220.959 384.659 222.124 384.659 223.4H385.659ZM386.299 220.376L387.197 220.814C387.547 220.099 388.024 219.569 388.631 219.195L388.107 218.344L387.582 217.493C386.632 218.079 385.904 218.904 385.4 219.938L386.299 220.376ZM388.107 218.344L388.635 219.193C389.245 218.814 389.979 218.608 390.875 218.608V217.608V216.608C389.658 216.608 388.547 216.893 387.579 217.495L388.107 218.344ZM390.875 217.608V218.608C391.951 218.608 392.705 218.855 393.231 219.253L393.835 218.456L394.438 217.659C393.471 216.926 392.252 216.608 390.875 216.608V217.608ZM393.835 218.456L393.238 219.259C393.769 219.653 394.143 220.223 394.332 221.047L395.307 220.824L396.281 220.601C396.001 219.377 395.393 218.368 394.431 217.653L393.835 218.456ZM395.307 220.824V219.824H394.507V220.824V221.824H395.307V220.824ZM394.507 220.824L395.477 220.581C395.233 219.608 394.72 218.794 393.94 218.182L393.323 218.968L392.705 219.754C393.12 220.08 393.396 220.504 393.536 221.067L394.507 220.824ZM393.323 218.968L393.947 218.187C393.125 217.529 392.059 217.264 390.875 217.264V218.264V219.264C391.78 219.264 392.347 219.468 392.698 219.749L393.323 218.968ZM390.875 218.264V217.264C389.831 217.264 388.869 217.505 388.022 218.016L388.539 218.872L389.055 219.728C389.552 219.429 390.147 219.264 390.875 219.264V218.264ZM388.539 218.872L388.016 218.019C387.179 218.533 386.535 219.268 386.076 220.185L386.971 220.632L387.865 221.079C388.175 220.46 388.576 220.022 389.061 219.725L388.539 218.872ZM386.971 220.632L386.071 220.195C385.617 221.13 385.411 222.21 385.411 223.4H386.411H387.411C387.411 222.436 387.578 221.67 387.87 221.069L386.971 220.632ZM386.411 223.4H385.411C385.411 224.59 385.617 225.67 386.071 226.605L386.971 226.168L387.87 225.731C387.578 225.13 387.411 224.364 387.411 223.4H386.411ZM386.971 226.168L386.079 226.62C386.537 227.525 387.178 228.254 388.006 228.774L388.539 227.928L389.071 227.082C388.576 226.77 388.172 226.326 387.863 225.716L386.971 226.168ZM388.539 227.928L388.022 228.784C388.869 229.295 389.831 229.536 390.875 229.536V228.536V227.536C390.147 227.536 389.552 227.371 389.055 227.072L388.539 227.928ZM390.875 228.536V229.536C392.053 229.536 393.113 229.269 393.94 228.618L393.323 227.832L392.705 227.046C392.338 227.334 391.766 227.536 390.875 227.536V228.536ZM393.323 227.832L393.942 228.617C394.731 227.994 395.248 227.173 395.48 226.19L394.507 225.96L393.533 225.73C393.403 226.283 393.13 226.71 392.703 227.047L393.323 227.832ZM394.507 225.96V226.96H395.307V225.96V224.96H394.507V225.96ZM395.307 225.96L394.332 225.737C394.143 226.561 393.767 227.141 393.231 227.547L393.835 228.344L394.438 229.141C395.395 228.417 396.001 227.407 396.281 226.183L395.307 225.96ZM393.835 228.344L393.231 227.547C392.705 227.945 391.951 228.192 390.875 228.192V229.192V230.192C392.252 230.192 393.471 229.874 394.438 229.141L393.835 228.344ZM408.622 229L407.683 228.655L407.189 230H408.622V229ZM412.734 217.8V216.8H412.036L411.795 217.455L412.734 217.8ZM413.502 217.8L414.442 217.459L414.203 216.8H413.502V217.8ZM417.566 229V230H418.992L418.506 228.659L417.566 229ZM416.798 229L415.857 229.339L416.095 230H416.798V229ZM413.102 218.728L414.043 218.389L413.106 215.786L412.162 218.387L413.102 218.728ZM409.374 229V230H410.075L410.314 229.341L409.374 229ZM410.366 225.448L409.436 225.081L408.896 226.448H410.366V225.448ZM410.606 224.84V223.84H409.925L409.676 224.473L410.606 224.84ZM415.598 224.84L416.528 224.473L416.278 223.84H415.598V224.84ZM415.838 225.448V226.448H417.308L416.768 225.081L415.838 225.448ZM408.622 229L409.56 229.345L413.672 218.145L412.734 217.8L411.795 217.455L407.683 228.655L408.622 229ZM412.734 217.8V218.8H413.502V217.8V216.8H412.734V217.8ZM413.502 217.8L412.562 218.141L416.626 229.341L417.566 229L418.506 228.659L414.442 217.459L413.502 217.8ZM417.566 229V228H416.798V229V230H417.566V229ZM416.798 229L417.739 228.661L414.043 218.389L413.102 218.728L412.161 219.067L415.857 229.339L416.798 229ZM413.102 218.728L412.162 218.387L408.434 228.659L409.374 229L410.314 229.341L414.042 219.069L413.102 218.728ZM409.374 229V228H408.622V229V230H409.374V229ZM410.366 225.448L411.296 225.815L411.536 225.207L410.606 224.84L409.676 224.473L409.436 225.081L410.366 225.448ZM410.606 224.84V225.84H415.598V224.84V223.84H410.606V224.84ZM415.598 224.84L414.668 225.207L414.908 225.815L415.838 225.448L416.768 225.081L416.528 224.473L415.598 224.84ZM415.838 225.448V224.448H410.366V225.448V226.448H415.838V225.448ZM423.482 229H422.482V230H423.482V229ZM423.482 217.8V216.8H422.482V217.8H423.482ZM429.674 218.472L429.205 219.355L429.211 219.359L429.218 219.362L429.674 218.472ZM431.562 220.392L430.661 220.825L430.665 220.835L431.562 220.392ZM431.594 226.36L430.69 225.931L430.686 225.941L431.594 226.36ZM429.77 228.312L430.253 229.188L430.261 229.183L429.77 228.312ZM424.202 228.392H423.202V229.392H424.202V228.392ZM429.322 227.8L429.8 228.678L429.81 228.673L429.322 227.8ZM430.922 226.088L431.829 226.509V226.509L430.922 226.088ZM430.922 220.776L430.006 221.176L430.009 221.184L430.013 221.192L430.922 220.776ZM429.338 219.032L428.835 219.896L428.843 219.901L428.85 219.905L429.338 219.032ZM424.202 218.408V217.408H423.202V218.408H424.202ZM423.482 229H424.482V217.8H423.482H422.482V229H423.482ZM423.482 217.8V218.8H426.426V217.8V216.8H423.482V217.8ZM426.426 217.8V218.8C427.645 218.8 428.551 219.008 429.205 219.355L429.674 218.472L430.143 217.589C429.111 217.04 427.853 216.8 426.426 216.8V217.8ZM429.674 218.472L429.218 219.362C429.882 219.702 430.353 220.185 430.661 220.825L431.562 220.392L432.463 219.959C431.961 218.914 431.172 218.116 430.13 217.582L429.674 218.472ZM431.562 220.392L430.665 220.835C430.997 221.508 431.186 222.366 431.186 223.448H432.186H433.186C433.186 222.14 432.959 220.962 432.459 219.949L431.562 220.392ZM432.186 223.448H431.186C431.186 224.439 431.01 225.258 430.691 225.931L431.594 226.36L432.497 226.789C432.967 225.798 433.186 224.676 433.186 223.448H432.186ZM431.594 226.36L430.686 225.941C430.394 226.574 429.936 227.07 429.279 227.441L429.77 228.312L430.261 229.183C431.268 228.615 432.026 227.81 432.502 226.779L431.594 226.36ZM429.77 228.312L429.287 227.436C428.653 227.786 427.743 228 426.49 228V229V230C427.946 230 429.223 229.755 430.253 229.188L429.77 228.312ZM426.49 229V228H423.482V229V230H426.49V229ZM424.202 228.392V229.392H426.474V228.392V227.392H424.202V228.392ZM426.474 228.392V229.392C427.748 229.392 428.879 229.179 429.8 228.678L429.322 227.8L428.844 226.922C428.314 227.21 427.546 227.392 426.474 227.392V228.392ZM429.322 227.8L429.81 228.673C430.714 228.167 431.397 227.441 431.829 226.509L430.922 226.088L430.015 225.667C429.764 226.207 429.38 226.622 428.834 226.927L429.322 227.8ZM430.922 226.088L431.829 226.509C432.245 225.611 432.434 224.58 432.434 223.448H431.434H430.434C430.434 224.364 430.281 225.093 430.015 225.667L430.922 226.088ZM431.434 223.448H432.434C432.434 222.306 432.246 221.267 431.831 220.36L430.922 220.776L430.013 221.192C430.281 221.779 430.434 222.521 430.434 223.448H431.434ZM430.922 220.776L431.838 220.376C431.42 219.417 430.741 218.67 429.826 218.159L429.338 219.032L428.85 219.905C429.386 220.204 429.763 220.62 430.006 221.176L430.922 220.776ZM429.338 219.032L429.841 218.168C428.92 217.632 427.772 217.408 426.474 217.408V218.408V219.408C427.566 219.408 428.326 219.6 428.835 219.896L429.338 219.032ZM426.474 218.408V217.408H424.202V218.408V219.408H426.474V218.408ZM424.202 218.408H423.202V228.392H424.202H425.202V218.408H424.202ZM441.205 229L440.272 229.361L440.52 230H441.205V229ZM436.869 217.8V216.8H435.409L435.936 218.161L436.869 217.8ZM437.653 217.8L438.587 217.443L438.341 216.8H437.653V217.8ZM441.621 228.184L440.687 228.541L441.617 230.976L442.554 228.543L441.621 228.184ZM445.621 217.8V216.8H444.934L444.688 217.441L445.621 217.8ZM446.405 217.8L447.336 218.163L447.868 216.8H446.405V217.8ZM442.037 229V230H442.72L442.968 229.363L442.037 229ZM441.205 229L442.137 228.639L437.801 217.439L436.869 217.8L435.936 218.161L440.272 229.361L441.205 229ZM436.869 217.8V218.8H437.653V217.8V216.8H436.869V217.8ZM437.653 217.8L436.719 218.157L440.687 228.541L441.621 228.184L442.555 227.827L438.587 217.443L437.653 217.8ZM441.621 228.184L442.554 228.543L446.554 218.159L445.621 217.8L444.688 217.441L440.688 227.825L441.621 228.184ZM445.621 217.8V218.8H446.405V217.8V216.8H445.621V217.8ZM446.405 217.8L445.473 217.437L441.105 228.637L442.037 229L442.968 229.363L447.336 218.163L446.405 217.8ZM442.037 229V228H441.205V229V230H442.037V229ZM452.013 229H451.013V230H452.013V229ZM452.013 217.8V216.8H451.013V217.8H452.013ZM452.733 217.8H453.733V216.8H452.733V217.8ZM452.733 229V230H453.733V229H452.733ZM452.013 229H453.013V217.8H452.013H451.013V229H452.013ZM452.013 217.8V218.8H452.733V217.8V216.8H452.013V217.8ZM452.733 217.8H451.733V229H452.733H453.733V217.8H452.733ZM452.733 229V228H452.013V229V230H452.733V229ZM460.417 228.728L459.944 229.609L459.95 229.613L460.417 228.728ZM459.105 227.464L458.221 227.932L458.226 227.942L458.232 227.953L459.105 227.464ZM458.689 225.64V224.64H457.704L457.689 225.624L458.689 225.64ZM459.441 225.64H460.441V224.64H459.441V225.64ZM459.761 227.096L458.858 227.526L458.864 227.539L458.871 227.552L459.761 227.096ZM460.785 228.152L460.282 229.017L460.291 229.021L460.785 228.152ZM464.193 228.232L463.746 227.338L463.736 227.342L464.193 228.232ZM465.153 227.368L466.015 227.875V227.875L465.153 227.368ZM465.105 224.856L464.289 225.435L464.3 225.45L464.311 225.464L465.105 224.856ZM464.161 224.056L463.694 224.94L463.704 224.946L464.161 224.056ZM462.865 223.544L462.562 224.497L462.574 224.501L462.587 224.505L462.865 223.544ZM461.473 223.064L461.822 222.127L461.809 222.122L461.473 223.064ZM459.761 222.056L459.035 222.744L459.044 222.754L459.761 222.056ZM459.537 219L458.679 218.485L458.675 218.492L459.537 219ZM460.657 217.992L461.104 218.886L461.112 218.883L461.119 218.879L460.657 217.992ZM464.177 217.96L464.601 217.054V217.054L464.177 217.96ZM465.361 218.984L464.52 219.525L464.526 219.534L465.361 218.984ZM465.793 220.616V221.616H466.793V220.616H465.793ZM465.025 220.616H464.025V221.616H465.025V220.616ZM464.705 219.336L463.838 219.835L463.844 219.845L463.85 219.854L464.705 219.336ZM463.809 218.536L463.362 219.43L463.376 219.438L463.391 219.445L463.809 218.536ZM461.025 218.536L461.462 219.436L461.472 219.431L461.482 219.425L461.025 218.536ZM460.193 219.288L461.055 219.794L461.059 219.787L461.063 219.781L460.193 219.288ZM461.153 222.152L460.716 223.052L460.731 223.059L460.747 223.066L461.153 222.152ZM462.433 222.632L462.736 221.679H462.736L462.433 222.632ZM463.873 223.144L464.248 222.217L464.237 222.213L463.873 223.144ZM465.073 223.784L464.501 224.604L464.512 224.612L465.073 223.784ZM465.921 224.712L465.042 225.189L465.047 225.199L465.053 225.208L465.921 224.712ZM465.841 227.656L466.705 228.159L466.71 228.15L465.841 227.656ZM464.625 228.776L465.086 229.663L465.093 229.66L464.625 228.776ZM462.593 229.192V228.192C461.844 228.192 461.289 228.057 460.883 227.843L460.417 228.728L459.95 229.613C460.718 230.017 461.614 230.192 462.593 230.192V229.192ZM460.417 228.728L460.89 227.847C460.469 227.621 460.176 227.331 459.977 226.975L459.105 227.464L458.232 227.953C458.63 228.664 459.212 229.216 459.944 229.609L460.417 228.728ZM459.105 227.464L459.989 226.996C459.786 226.614 459.68 226.175 459.689 225.656L458.689 225.64L457.689 225.624C457.676 226.449 457.847 227.226 458.221 227.932L459.105 227.464ZM458.689 225.64V226.64H459.441V225.64V224.64H458.689V225.64ZM459.441 225.64H458.441C458.441 226.303 458.577 226.936 458.858 227.526L459.761 227.096L460.664 226.666C460.518 226.36 460.441 226.022 460.441 225.64H459.441ZM459.761 227.096L458.871 227.552C459.189 228.173 459.672 228.662 460.282 229.017L460.785 228.152L461.287 227.287C460.981 227.109 460.78 226.893 460.651 226.64L459.761 227.096ZM460.785 228.152L460.291 229.021C460.954 229.398 461.736 229.552 462.577 229.552V228.552V227.552C461.967 227.552 461.554 227.439 461.279 227.283L460.785 228.152ZM462.577 228.552V229.552C463.335 229.552 464.046 229.431 464.649 229.122L464.193 228.232L463.736 227.342C463.508 227.459 463.141 227.552 462.577 227.552V228.552ZM464.193 228.232L464.64 229.126C465.216 228.839 465.691 228.426 466.015 227.875L465.153 227.368L464.291 226.861C464.188 227.036 464.023 227.199 463.746 227.338L464.193 228.232ZM465.153 227.368L466.015 227.875C466.324 227.349 466.473 226.766 466.473 226.152H465.473H464.473C464.473 226.434 464.408 226.662 464.291 226.861L465.153 227.368ZM465.473 226.152H466.473C466.473 225.464 466.317 224.794 465.898 224.248L465.105 224.856L464.311 225.464C464.383 225.558 464.473 225.752 464.473 226.152H465.473ZM465.105 224.856L465.92 224.277C465.584 223.804 465.141 223.435 464.618 223.166L464.161 224.056L463.704 224.946C463.97 225.082 464.156 225.247 464.289 225.435L465.105 224.856ZM464.161 224.056L464.628 223.172C464.175 222.933 463.678 222.738 463.142 222.583L462.865 223.544L462.587 224.505C463.011 224.627 463.379 224.774 463.694 224.94L464.161 224.056ZM462.865 223.544L463.168 222.591C462.714 222.447 462.265 222.292 461.821 222.127L461.473 223.064L461.124 224.001C461.598 224.178 462.077 224.343 462.562 224.497L462.865 223.544ZM461.473 223.064L461.809 222.122C461.152 221.888 460.732 221.62 460.477 221.358L459.761 222.056L459.044 222.754C459.579 223.303 460.3 223.707 461.136 224.006L461.473 223.064ZM459.761 222.056L460.486 221.368C460.301 221.172 460.169 220.886 460.169 220.408H459.169H458.169C458.169 221.295 458.432 222.108 459.035 222.744L459.761 222.056ZM459.169 220.408H460.169C460.169 220.049 460.251 219.758 460.398 219.508L459.537 219L458.675 218.492C458.332 219.074 458.169 219.722 458.169 220.408H459.169ZM459.537 219L460.394 219.514C460.542 219.267 460.765 219.056 461.104 218.886L460.657 217.992L460.21 217.098C459.567 217.419 459.043 217.879 458.679 218.486L459.537 219ZM460.657 217.992L461.119 218.879C461.434 218.715 461.863 218.608 462.449 218.608V217.608V216.608C461.626 216.608 460.861 216.757 460.194 217.105L460.657 217.992ZM462.449 217.608V218.608C462.978 218.608 463.405 218.703 463.753 218.866L464.177 217.96L464.601 217.054C463.945 216.748 463.22 216.608 462.449 216.608V217.608ZM464.177 217.96L463.753 218.866C464.091 219.024 464.338 219.242 464.52 219.525L465.361 218.984L466.202 218.443C465.808 217.83 465.266 217.366 464.601 217.054L464.177 217.96ZM465.361 218.984L464.526 219.534C464.683 219.772 464.793 220.113 464.793 220.616H465.793H466.793C466.793 219.817 466.615 219.07 466.196 218.434L465.361 218.984ZM465.793 220.616V219.616H465.025V220.616V221.616H465.793V220.616ZM465.025 220.616H466.025C466.025 219.972 465.887 219.357 465.56 218.818L464.705 219.336L463.85 219.854C463.949 220.019 464.025 220.258 464.025 220.616H465.025ZM464.705 219.336L465.571 218.837C465.258 218.292 464.796 217.889 464.226 217.627L463.809 218.536L463.391 219.445C463.611 219.546 463.746 219.676 463.838 219.835L464.705 219.336ZM463.809 218.536L464.256 217.642C463.704 217.365 463.085 217.248 462.433 217.248V218.248V219.248C462.848 219.248 463.146 219.323 463.362 219.43L463.809 218.536ZM462.433 218.248V217.248C461.761 217.248 461.123 217.361 460.567 217.647L461.025 218.536L461.482 219.425C461.674 219.327 461.974 219.248 462.433 219.248V218.248ZM461.025 218.536L460.588 217.636C460.057 217.895 459.616 218.277 459.323 218.795L460.193 219.288L461.063 219.781C461.132 219.659 461.246 219.54 461.462 219.436L461.025 218.536ZM460.193 219.288L459.33 218.782C459.048 219.264 458.921 219.801 458.921 220.36H459.921H460.921C460.921 220.109 460.975 219.93 461.055 219.794L460.193 219.288ZM459.921 220.36H458.921C458.921 220.981 459.074 221.591 459.479 222.092L460.257 221.464L461.035 220.836C460.991 220.782 460.921 220.656 460.921 220.36H459.921ZM460.257 221.464L459.479 222.092C459.809 222.501 460.232 222.816 460.716 223.052L461.153 222.152L461.59 221.252C461.327 221.125 461.152 220.981 461.035 220.836L460.257 221.464ZM461.153 222.152L460.747 223.066C461.169 223.254 461.631 223.426 462.13 223.585L462.433 222.632L462.736 221.679C462.296 221.539 461.904 221.392 461.559 221.238L461.153 222.152ZM462.433 222.632L462.13 223.585C462.577 223.727 463.036 223.891 463.508 224.075L463.873 223.144L464.237 222.213C463.728 222.013 463.227 221.835 462.736 221.679L462.433 222.632ZM463.873 223.144L463.498 224.071C463.885 224.228 464.217 224.407 464.501 224.604L465.073 223.784L465.645 222.964C465.224 222.671 464.757 222.423 464.248 222.217L463.873 223.144ZM465.073 223.784L464.512 224.612C464.747 224.771 464.918 224.961 465.042 225.189L465.921 224.712L466.8 224.235C466.518 223.716 466.124 223.288 465.633 222.956L465.073 223.784ZM465.921 224.712L465.053 225.208C465.156 225.39 465.241 225.676 465.241 226.12H466.241H467.241C467.241 225.434 467.112 224.781 466.789 224.216L465.921 224.712ZM466.241 226.12H465.241C465.241 226.506 465.15 226.848 464.971 227.162L465.841 227.656L466.71 228.15C467.065 227.526 467.241 226.843 467.241 226.12H466.241ZM465.841 227.656L464.976 227.153C464.818 227.426 464.563 227.677 464.157 227.892L464.625 228.776L465.093 229.66C465.775 229.299 466.33 228.803 466.705 228.159L465.841 227.656ZM464.625 228.776L464.163 227.889C463.815 228.07 463.309 228.192 462.593 228.192V229.192V230.192C463.519 230.192 464.368 230.037 465.086 229.663L464.625 228.776ZM474.265 228.472L473.742 229.324L473.751 229.329L474.265 228.472ZM472.393 226.44L471.503 226.896L471.505 226.9L472.393 226.44ZM472.393 220.392L473.281 220.852L473.283 220.848L472.393 220.392ZM474.265 218.344L474.788 219.196V219.196L474.265 218.344ZM479.897 218.344L479.374 219.196L479.379 219.2L479.897 218.344ZM481.769 220.392L480.875 220.839L480.877 220.844L481.769 220.392ZM481.769 226.44L482.661 226.892L482.664 226.887L481.769 226.44ZM479.897 228.472L480.412 229.33L480.415 229.327L479.897 228.472ZM479.449 227.928L479.954 228.791V228.791L479.449 227.928ZM481.081 226.168L481.971 226.625V226.625L481.081 226.168ZM481.081 220.632L480.192 221.089V221.089L481.081 220.632ZM474.713 218.872L475.218 219.735V219.735L474.713 218.872ZM473.065 220.632L472.181 220.165L472.176 220.175L473.065 220.632ZM473.065 226.168L472.176 226.625L472.181 226.635L473.065 226.168ZM474.713 227.928L475.218 227.065V227.065L474.713 227.928ZM477.065 229.192V228.192C476.153 228.192 475.403 227.989 474.78 227.615L474.265 228.472L473.751 229.329C474.727 229.915 475.844 230.192 477.065 230.192V229.192ZM474.265 228.472L474.788 227.62C474.149 227.228 473.648 226.688 473.281 225.98L472.393 226.44L471.505 226.9C472.034 227.92 472.781 228.735 473.742 229.324L474.265 228.472ZM472.393 226.44L473.283 225.984C472.919 225.273 472.721 224.421 472.721 223.4H471.721H470.721C470.721 224.683 470.971 225.858 471.503 226.896L472.393 226.44ZM471.721 223.4H472.721C472.721 222.391 472.918 221.551 473.281 220.852L472.393 220.392L471.505 219.932C470.972 220.961 470.721 222.126 470.721 223.4H471.721ZM472.393 220.392L473.283 220.848C473.652 220.129 474.152 219.587 474.788 219.196L474.265 218.344L473.742 217.492C472.778 218.083 472.031 218.906 471.503 219.936L472.393 220.392ZM474.265 218.344L474.788 219.196C475.41 218.815 476.157 218.608 477.065 218.608V217.608V216.608C475.84 216.608 474.72 216.892 473.742 217.492L474.265 218.344ZM477.065 217.608V218.608C477.998 218.608 478.755 218.817 479.374 219.196L479.897 218.344L480.42 217.492C479.439 216.89 478.308 216.608 477.065 216.608V217.608ZM479.897 218.344L479.379 219.2C480.023 219.589 480.519 220.128 480.875 220.839L481.769 220.392L482.664 219.945C482.145 218.907 481.393 218.08 480.415 217.488L479.897 218.344ZM481.769 220.392L480.877 220.844C481.232 221.545 481.425 222.388 481.425 223.4H482.425H483.425C483.425 222.13 483.181 220.967 482.661 219.94L481.769 220.392ZM482.425 223.4H481.425C481.425 224.424 481.231 225.28 480.875 225.993L481.769 226.44L482.664 226.887C483.182 225.851 483.425 224.68 483.425 223.4H482.425ZM481.769 226.44L480.877 225.988C480.522 226.689 480.026 227.225 479.379 227.616L479.897 228.472L480.415 229.327C481.389 228.738 482.141 227.919 482.661 226.892L481.769 226.44ZM479.897 228.472L479.383 227.615C478.762 227.987 478.002 228.192 477.065 228.192V229.192V230.192C478.304 230.192 479.432 229.917 480.412 229.329L479.897 228.472ZM477.081 228.536V229.536C478.125 229.536 479.092 229.295 479.954 228.791L479.449 227.928L478.944 227.065C478.42 227.372 477.808 227.536 477.081 227.536V228.536ZM479.449 227.928L479.954 228.791C480.824 228.283 481.496 227.549 481.971 226.625L481.081 226.168L480.192 225.711C479.877 226.323 479.461 226.763 478.944 227.065L479.449 227.928ZM481.081 226.168L481.971 226.625C482.454 225.685 482.673 224.598 482.673 223.4H481.673H480.673C480.673 224.357 480.498 225.115 480.192 225.711L481.081 226.168ZM481.673 223.4H482.673C482.673 222.202 482.454 221.115 481.971 220.175L481.081 220.632L480.192 221.089C480.498 221.685 480.673 222.443 480.673 223.4H481.673ZM481.081 220.632L481.971 220.175C481.496 219.251 480.824 218.517 479.954 218.009L479.449 218.872L478.944 219.735C479.461 220.037 479.877 220.477 480.192 221.089L481.081 220.632ZM479.449 218.872L479.954 218.009C479.092 217.505 478.125 217.264 477.081 217.264V218.264V219.264C477.808 219.264 478.42 219.428 478.944 219.735L479.449 218.872ZM477.081 218.264V217.264C476.037 217.264 475.07 217.505 474.208 218.009L474.713 218.872L475.218 219.735C475.743 219.428 476.355 219.264 477.081 219.264V218.264ZM474.713 218.872L474.208 218.009C473.341 218.516 472.666 219.246 472.181 220.165L473.065 220.632L473.95 221.099C474.275 220.482 474.699 220.039 475.218 219.735L474.713 218.872ZM473.065 220.632L472.176 220.175C471.693 221.115 471.473 222.202 471.473 223.4H472.473H473.473C473.473 222.443 473.648 221.685 473.955 221.089L473.065 220.632ZM472.473 223.4H471.473C471.473 224.598 471.693 225.685 472.176 226.625L473.065 226.168L473.955 225.711C473.648 225.115 473.473 224.357 473.473 223.4H472.473ZM473.065 226.168L472.181 226.635C472.666 227.554 473.341 228.284 474.208 228.791L474.713 227.928L475.218 227.065C474.699 226.761 474.275 226.318 473.95 225.701L473.065 226.168ZM474.713 227.928L474.208 228.791C475.07 229.295 476.037 229.536 477.081 229.536V228.536V227.536C476.355 227.536 475.743 227.372 475.218 227.065L474.713 227.928ZM488.435 229H487.435V230H488.435V229ZM488.435 217.8V216.8H487.435V217.8H488.435ZM493.667 218.216L493.206 219.103L493.213 219.107L493.667 218.216ZM494.851 219.352L493.961 219.807L493.965 219.815L493.969 219.823L494.851 219.352ZM494.851 222.648L495.734 223.119L495.738 223.111L494.851 222.648ZM493.651 223.784L494.098 224.678L494.105 224.675L493.651 223.784ZM489.155 224.184V223.184H488.155V224.184H489.155ZM489.155 229V230H490.155V229H489.155ZM494.499 229L493.608 229.454L493.886 230H494.499V229ZM491.907 223.912V222.912H490.275L491.016 224.366L491.907 223.912ZM492.739 223.912L493.628 223.454L493.349 222.912H492.739V223.912ZM495.363 229V230H497.004L496.252 228.542L495.363 229ZM489.155 223.592H488.155V224.592H489.155V223.592ZM493.731 222.92L493.065 222.174L493.057 222.182L493.731 222.92ZM493.747 219.096L493.073 219.835L493.082 219.843L493.747 219.096ZM489.155 218.424V217.424H488.155V218.424H489.155ZM488.435 229H489.435V217.8H488.435H487.435V229H488.435ZM488.435 217.8V218.8H491.571V217.8V216.8H488.435V217.8ZM491.571 217.8V218.8C492.34 218.8 492.864 218.925 493.206 219.103L493.667 218.216L494.128 217.329C493.404 216.952 492.53 216.8 491.571 216.8V217.8ZM493.667 218.216L493.213 219.107C493.595 219.302 493.824 219.539 493.961 219.807L494.851 219.352L495.742 218.897C495.388 218.205 494.827 217.685 494.121 217.325L493.667 218.216ZM494.851 219.352L493.969 219.823C494.139 220.141 494.235 220.521 494.235 220.984H495.235H496.235C496.235 220.231 496.075 219.523 495.733 218.881L494.851 219.352ZM495.235 220.984H494.235C494.235 221.461 494.138 221.854 493.965 222.185L494.851 222.648L495.738 223.111C496.077 222.461 496.235 221.744 496.235 220.984H495.235ZM494.851 222.648L493.969 222.177C493.821 222.455 493.582 222.697 493.197 222.893L493.651 223.784L494.105 224.675C494.808 224.316 495.37 223.801 495.733 223.119L494.851 222.648ZM493.651 223.784L493.204 222.89C492.86 223.061 492.322 223.184 491.523 223.184V224.184V225.184C492.495 225.184 493.375 225.04 494.098 224.678L493.651 223.784ZM491.523 224.184V223.184H489.155V224.184V225.184H491.523V224.184ZM489.155 224.184H488.155V229H489.155H490.155V224.184H489.155ZM489.155 229V228H488.435V229V230H489.155V229ZM494.499 229L495.39 228.546L492.798 223.458L491.907 223.912L491.016 224.366L493.608 229.454L494.499 229ZM491.907 223.912V224.912H492.739V223.912V222.912H491.907V223.912ZM492.739 223.912L491.85 224.37L494.474 229.458L495.363 229L496.252 228.542L493.628 223.454L492.739 223.912ZM495.363 229V228H494.499V229V230H495.363V229ZM489.155 223.592V224.592H491.539V223.592V222.592H489.155V223.592ZM491.539 223.592V224.592C492.646 224.592 493.661 224.338 494.405 223.658L493.731 222.92L493.057 222.182C492.82 222.398 492.374 222.592 491.539 222.592V223.592ZM493.731 222.92L494.397 223.666C495.163 222.982 495.483 222.034 495.483 220.984H494.483H493.483C493.483 221.619 493.302 221.962 493.065 222.174L493.731 222.92ZM494.483 220.984H495.483C495.483 219.954 495.167 219.022 494.412 218.349L493.747 219.096L493.082 219.843C493.308 220.044 493.483 220.371 493.483 220.984H494.483ZM493.747 219.096L494.421 218.358C493.675 217.676 492.653 217.424 491.539 217.424V218.424V219.424C492.388 219.424 492.838 219.62 493.073 219.834L493.747 219.096ZM491.539 218.424V217.424H489.155V218.424V219.424H491.539V218.424ZM489.155 218.424H488.155V223.592H489.155H490.155V218.424H489.155ZM503.576 229H502.576V230H503.576V229ZM503.576 224.328H504.576V224.074L504.455 223.85L503.576 224.328ZM500.024 217.8V216.8H498.342L499.146 218.278L500.024 217.8ZM500.824 217.8L501.706 217.329L501.424 216.8H500.824V217.8ZM504.04 223.816V224.816H505.709L504.922 223.345L504.04 223.816ZM503.848 223.816L502.962 223.354L502.199 224.816H503.848V223.816ZM506.984 217.8V216.8H506.378L506.098 217.338L506.984 217.8ZM507.8 217.8L508.681 218.273L509.472 216.8H507.8V217.8ZM504.296 224.328L503.415 223.855L503.296 224.077V224.328H504.296ZM504.296 229V230H505.296V229H504.296ZM503.576 229H504.576V224.328H503.576H502.576V229H503.576ZM503.576 224.328L504.455 223.85L500.903 217.322L500.024 217.8L499.146 218.278L502.698 224.806L503.576 224.328ZM500.024 217.8V218.8H500.824V217.8V216.8H500.024V217.8ZM500.824 217.8L499.942 218.271L503.158 224.287L504.04 223.816L504.922 223.345L501.706 217.329L500.824 217.8ZM504.04 223.816V222.816H503.848V223.816V224.816H504.04V223.816ZM503.848 223.816L504.735 224.278L507.871 218.262L506.984 217.8L506.098 217.338L502.962 223.354L503.848 223.816ZM506.984 217.8V218.8H507.8V217.8V216.8H506.984V217.8ZM507.8 217.8L506.919 217.327L503.415 223.855L504.296 224.328L505.177 224.801L508.681 218.273L507.8 217.8ZM504.296 224.328H503.296V229H504.296H505.296V224.328H504.296ZM504.296 229V228H503.576V229V230H504.296V229Z" fill="#2A2A27" mask="url(#path-5-outside-1_0_1)"/>
</g>
</svg>


