<svg width="740" height="248" viewBox="250 18 740 248" fill="none" xmlns="http://www.w3.org/2000/svg">
<path d="M609 185C666.397 211.804 671.397 25.3041 724 22" stroke="#B8851E" stroke-width="2.5" stroke-linecap="round"/>
<path d="M306.16 136.96C302.053 136.96 298.453 136.24 295.36 134.8C292.267 133.307 289.867 131.227 288.16 128.56C286.453 125.893 285.6 122.773 285.6 119.2H294C294.053 121.227 294.533 123.093 295.44 124.8C296.4 126.453 297.76 127.787 299.52 128.8C301.333 129.76 303.547 130.24 306.16 130.24C308.4 130.24 310.32 129.867 311.92 129.12C313.573 128.373 314.827 127.36 315.68 126.08C316.533 124.747 316.96 123.227 316.96 121.52C316.96 119.547 316.507 117.92 315.6 116.64C314.693 115.36 313.467 114.32 311.92 113.52C310.427 112.667 308.667 111.92 306.64 111.28C304.667 110.64 302.587 109.947 300.4 109.2C295.973 107.76 292.667 105.893 290.48 103.6C288.347 101.307 287.28 98.32 287.28 94.64C287.28 91.4933 288.027 88.7733 289.52 86.48C291.013 84.1333 293.093 82.32 295.76 81.04C298.48 79.7067 301.68 79.04 305.36 79.04C308.987 79.04 312.16 79.7067 314.88 81.04C317.6 82.3733 319.733 84.2133 321.28 86.56C322.827 88.9067 323.6 91.6533 323.6 94.8H315.12C315.12 93.36 314.747 91.9467 314 90.56C313.253 89.1733 312.133 88.0533 310.64 87.2C309.147 86.2933 307.307 85.84 305.12 85.84C303.307 85.7867 301.68 86.08 300.24 86.72C298.8 87.36 297.68 88.2933 296.88 89.52C296.08 90.7467 295.68 92.2133 295.68 93.92C295.68 95.6267 296.027 97.0133 296.72 98.08C297.467 99.0933 298.533 99.9733 299.92 100.72C301.307 101.467 302.907 102.16 304.72 102.8C306.587 103.387 308.64 104.053 310.88 104.8C313.653 105.707 316.107 106.827 318.24 108.16C320.427 109.44 322.133 111.12 323.36 113.2C324.64 115.227 325.28 117.84 325.28 121.04C325.28 123.813 324.56 126.4 323.12 128.8C321.68 131.2 319.547 133.173 316.72 134.72C313.893 136.213 310.373 136.96 306.16 136.96ZM341.193 136V80H376.553V86.56H349.193V104.48H374.153V110.88H349.193V129.44H376.553V136H341.193ZM417.856 136.96C412.363 136.96 407.616 135.76 403.616 133.36C399.67 130.907 396.603 127.52 394.416 123.2C392.283 118.827 391.216 113.76 391.216 108C391.216 102.293 392.283 97.2533 394.416 92.88C396.603 88.5067 399.67 85.12 403.616 82.72C407.616 80.2667 412.363 79.04 417.856 79.04C424.416 79.04 429.723 80.6133 433.776 83.76C437.883 86.9067 440.496 91.3333 441.616 97.04H432.816C432.016 93.7333 430.363 91.0933 427.856 89.12C425.403 87.1467 422.07 86.16 417.856 86.16C414.07 86.16 410.79 87.04 408.016 88.8C405.243 90.56 403.11 93.0667 401.616 96.32C400.123 99.5733 399.376 103.467 399.376 108C399.376 112.533 400.123 116.453 401.616 119.76C403.11 123.013 405.243 125.52 408.016 127.28C410.79 128.987 414.07 129.84 417.856 129.84C422.07 129.84 425.403 128.907 427.856 127.04C430.363 125.12 432.016 122.533 432.816 119.28H441.616C440.496 124.827 437.883 129.173 433.776 132.32C429.723 135.413 424.416 136.96 417.856 136.96ZM482.787 136.96C477.4 136.96 472.654 135.76 468.547 133.36C464.494 130.907 461.294 127.52 458.947 123.2C456.654 118.827 455.507 113.76 455.507 108C455.507 102.293 456.654 97.28 458.947 92.96C461.294 88.5867 464.494 85.1733 468.547 82.72C472.654 80.2667 477.4 79.04 482.787 79.04C488.28 79.04 493.08 80.2667 497.187 82.72C501.294 85.1733 504.467 88.5867 506.707 92.96C509 97.28 510.147 102.293 510.147 108C510.147 113.76 509 118.827 506.707 123.2C504.467 127.52 501.294 130.907 497.187 133.36C493.08 135.76 488.28 136.96 482.787 136.96ZM482.867 129.84C486.707 129.84 490.067 128.96 492.947 127.2C495.827 125.44 498.04 122.933 499.587 119.68C501.187 116.427 501.987 112.533 501.987 108C501.987 103.467 501.187 99.5733 499.587 96.32C498.04 93.0667 495.827 90.5867 492.947 88.88C490.067 87.12 486.707 86.24 482.867 86.24C479.027 86.24 475.667 87.12 472.787 88.88C469.907 90.5867 467.667 93.0667 466.067 96.32C464.467 99.5733 463.667 103.467 463.667 108C463.667 112.533 464.467 116.427 466.067 119.68C467.667 122.933 469.907 125.44 472.787 127.2C475.667 128.96 479.027 129.84 482.867 129.84ZM526.174 136V80H534.174L562.734 122.96V80H570.734V136H562.734L534.174 93.12V136H526.174ZM588.824 136V80H606.024C612.531 80 617.918 81.1467 622.184 83.44C626.451 85.7333 629.598 88.9867 631.624 93.2C633.704 97.36 634.744 102.32 634.744 108.08C634.744 113.84 633.704 118.8 631.624 122.96C629.598 127.12 626.451 130.347 622.184 132.64C617.971 134.88 612.584 136 606.024 136H588.824ZM596.824 129.28H605.704C610.878 129.28 614.984 128.427 618.024 126.72C621.064 125.013 623.224 122.587 624.504 119.44C625.838 116.24 626.504 112.453 626.504 108.08C626.504 103.653 625.838 99.84 624.504 96.64C623.224 93.44 621.064 90.9867 618.024 89.28C614.984 87.5733 610.878 86.72 605.704 86.72H596.824V129.28Z" fill="#2A2A27"/>
<path d="M732.4 136.96C726.907 136.96 722.16 135.76 718.16 133.36C714.213 130.907 711.147 127.52 708.96 123.2C706.827 118.827 705.76 113.76 705.76 108C705.76 102.293 706.827 97.2533 708.96 92.88C711.147 88.5067 714.213 85.12 718.16 82.72C722.16 80.2667 726.907 79.04 732.4 79.04C738.96 79.04 744.267 80.6133 748.32 83.76C752.427 86.9067 755.04 91.3333 756.16 97.04H747.36C746.56 93.7333 744.907 91.0933 742.4 89.12C739.947 87.1467 736.613 86.16 732.4 86.16C728.613 86.16 725.333 87.04 722.56 88.8C719.787 90.56 717.653 93.0667 716.16 96.32C714.667 99.5733 713.92 103.467 713.92 108C713.92 112.533 714.667 116.453 716.16 119.76C717.653 123.013 719.787 125.52 722.56 127.28C725.333 128.987 728.613 129.84 732.4 129.84C736.613 129.84 739.947 128.907 742.4 127.04C744.907 125.12 746.56 122.533 747.36 119.28H756.16C755.04 124.827 752.427 129.173 748.32 132.32C744.267 135.413 738.96 136.96 732.4 136.96ZM792.771 136.96C788.824 136.96 785.251 136.187 782.051 134.64C778.851 133.04 776.291 130.64 774.371 127.44C772.504 124.187 771.571 120.053 771.571 115.04V80H779.571V115.12C779.571 118.48 780.131 121.253 781.251 123.44C782.371 125.573 783.917 127.173 785.891 128.24C787.917 129.253 790.264 129.76 792.931 129.76C795.651 129.76 797.997 129.253 799.971 128.24C801.944 127.173 803.464 125.573 804.531 123.44C805.651 121.253 806.211 118.48 806.211 115.12V80H814.211V115.04C814.211 120.053 813.251 124.187 811.331 127.44C809.411 130.64 806.824 133.04 803.571 134.64C800.317 136.187 796.717 136.96 792.771 136.96ZM831.734 136V80H850.694C855.12 80 858.747 80.7467 861.574 82.24C864.4 83.7333 866.48 85.7333 867.814 88.24C869.2 90.6933 869.894 93.4933 869.894 96.64C869.894 99.6267 869.2 102.4 867.814 104.96C866.48 107.467 864.374 109.493 861.494 111.04C858.614 112.533 854.934 113.28 850.454 113.28H839.734V136H831.734ZM861.174 136L849.094 111.12H857.894L870.454 136H861.174ZM839.734 107.2H850.134C854.08 107.2 856.987 106.24 858.854 104.32C860.72 102.347 861.654 99.84 861.654 96.8C861.654 93.7067 860.747 91.2533 858.934 89.44C857.12 87.6267 854.187 86.72 850.134 86.72H839.734V107.2ZM901.022 136L880.222 80H888.862L905.822 127.68L922.942 80H931.422L910.622 136H901.022ZM945.237 136V80H980.597V86.56H953.237V104.48H978.197V110.88H953.237V129.44H980.597V136H945.237Z" fill="#B8851E"/>
<line opacity="0.2" x1="282" y1="196.5" x2="986" y2="196.5" stroke="#2A2A27"/>
<g opacity="0.45">
<mask id="path-5-outside-1_0_1" maskUnits="userSpaceOnUse" x="286" y="218" width="335" height="21" fill="black">
<rect fill="white" x="286" y="218" width="335" height="21"/>
<path d="M292.936 237.288C291.64 237.288 290.552 237.056 289.672 236.592C288.808 236.128 288.152 235.496 287.704 234.696C287.272 233.88 287.064 232.968 287.08 231.96H288.208C288.208 232.744 288.368 233.472 288.688 234.144C289.024 234.8 289.536 235.328 290.224 235.728C290.928 236.128 291.824 236.328 292.912 236.328C293.904 236.328 294.712 236.168 295.336 235.848C295.976 235.528 296.456 235.096 296.776 234.552C297.096 234.008 297.256 233.4 297.256 232.728C297.256 231.912 297.072 231.264 296.704 230.784C296.352 230.288 295.88 229.888 295.288 229.584C294.712 229.28 294.064 229.024 293.344 228.816C292.64 228.592 291.944 228.352 291.256 228.096C290.136 227.696 289.28 227.192 288.688 226.584C288.096 225.96 287.8 225.136 287.8 224.112C287.8 223.328 287.984 222.624 288.352 222C288.736 221.36 289.296 220.856 290.032 220.488C290.768 220.104 291.664 219.912 292.72 219.912C293.696 219.912 294.56 220.088 295.312 220.44C296.064 220.792 296.656 221.304 297.088 221.976C297.52 222.632 297.736 223.448 297.736 224.424H296.584C296.584 223.672 296.424 223.032 296.104 222.504C295.8 221.976 295.352 221.576 294.76 221.304C294.184 221.016 293.496 220.872 292.696 220.872C291.848 220.872 291.144 221.016 290.584 221.304C290.024 221.576 289.608 221.952 289.336 222.432C289.064 222.896 288.928 223.432 288.928 224.04C288.928 224.728 289.096 225.28 289.432 225.696C289.768 226.112 290.216 226.456 290.776 226.728C291.352 226.984 291.992 227.224 292.696 227.448C293.4 227.672 294.12 227.928 294.856 228.216C295.528 228.488 296.128 228.808 296.656 229.176C297.2 229.544 297.624 230.008 297.928 230.568C298.248 231.128 298.408 231.832 298.408 232.68C298.408 233.512 298.208 234.28 297.808 234.984C297.408 235.672 296.8 236.232 295.984 236.664C295.184 237.08 294.168 237.288 292.936 237.288ZM310.699 237V221.112H305.611V220.2H316.843V221.112H311.779V237H310.699ZM325.442 237V220.2H330.146C331.442 220.2 332.49 220.408 333.29 220.824C334.106 221.24 334.698 221.808 335.066 222.528C335.45 223.248 335.642 224.064 335.642 224.976C335.642 225.904 335.45 226.736 335.066 227.472C334.682 228.192 334.082 228.76 333.266 229.176C332.466 229.576 331.402 229.776 330.074 229.776H326.522V237H325.442ZM334.538 237L330.65 229.368H331.898L335.834 237H334.538ZM326.522 228.888H330.098C331.554 228.888 332.65 228.552 333.386 227.88C334.138 227.208 334.514 226.24 334.514 224.976C334.514 223.744 334.146 222.8 333.41 222.144C332.674 221.472 331.57 221.136 330.098 221.136H326.522V228.888ZM343.862 237L350.03 220.2H351.182L357.278 237H356.126L350.582 221.592L344.99 237H343.862ZM346.478 231.672L346.838 230.76H354.326L354.686 231.672H346.478ZM367.746 237V221.112H362.658V220.2H373.89V221.112H368.826V237H367.746ZM382.489 237V220.2H392.353V221.112H383.569V228.12H391.633V229.056H383.569V236.088H392.353V237H382.489ZM408.622 237.288C407.07 237.288 405.718 236.92 404.566 236.184C403.414 235.448 402.518 234.432 401.878 233.136C401.238 231.824 400.918 230.304 400.918 228.576C400.918 226.864 401.246 225.36 401.902 224.064C402.558 222.752 403.478 221.736 404.662 221.016C405.862 220.28 407.262 219.912 408.862 219.912C410.67 219.912 412.174 220.344 413.374 221.208C414.574 222.072 415.374 223.304 415.774 224.904H414.526C414.222 223.704 413.598 222.744 412.654 222.024C411.71 221.288 410.446 220.92 408.862 220.92C407.518 220.92 406.334 221.232 405.31 221.856C404.286 222.464 403.486 223.336 402.91 224.472C402.334 225.608 402.046 226.976 402.046 228.576C402.046 230.144 402.326 231.512 402.886 232.68C403.446 233.832 404.214 234.72 405.19 235.344C406.182 235.968 407.326 236.28 408.622 236.28C410.638 236.28 412.166 235.664 413.206 234.432C414.246 233.184 414.83 231.416 414.958 229.128H409.534V228.24H416.086V237H415.126L414.934 233.208C414.55 234.088 414.062 234.832 413.47 235.44C412.894 236.048 412.206 236.512 411.406 236.832C410.606 237.136 409.678 237.288 408.622 237.288ZM425.403 237V220.2H426.483V237H425.403ZM443.312 237.288C441.728 237.288 440.344 236.928 439.16 236.208C437.992 235.472 437.088 234.456 436.448 233.16C435.808 231.848 435.488 230.328 435.488 228.6C435.488 226.872 435.808 225.36 436.448 224.064C437.088 222.752 437.992 221.736 439.16 221.016C440.344 220.28 441.728 219.912 443.312 219.912C445.152 219.912 446.632 220.336 447.752 221.184C448.872 222.016 449.608 223.2 449.96 224.736H448.76C448.472 223.584 447.88 222.656 446.984 221.952C446.104 221.248 444.88 220.896 443.312 220.896C441.984 220.896 440.816 221.2 439.808 221.808C438.816 222.416 438.032 223.296 437.456 224.448C436.896 225.6 436.616 226.984 436.616 228.6C436.616 230.216 436.896 231.6 437.456 232.752C438.032 233.888 438.816 234.768 439.808 235.392C440.816 236 441.984 236.304 443.312 236.304C444.864 236.304 446.088 235.952 446.984 235.248C447.896 234.528 448.488 233.592 448.76 232.44H449.96C449.608 233.976 448.872 235.168 447.752 236.016C446.632 236.864 445.152 237.288 443.312 237.288ZM469.933 237L476.101 220.2H477.253L483.349 237H482.197L476.653 221.592L471.061 237H469.933ZM472.549 231.672L472.909 230.76H480.397L480.757 231.672H472.549ZM492.223 237V220.2H496.639C498.623 220.2 500.247 220.536 501.511 221.208C502.791 221.864 503.735 222.824 504.343 224.088C504.967 225.352 505.279 226.88 505.279 228.672C505.279 230.336 504.983 231.792 504.391 233.04C503.815 234.288 502.903 235.264 501.655 235.968C500.407 236.656 498.767 237 496.735 237H492.223ZM493.303 236.088H496.711C498.471 236.088 499.895 235.792 500.983 235.2C502.071 234.592 502.871 233.736 503.383 232.632C503.895 231.528 504.151 230.208 504.151 228.672C504.151 227.12 503.895 225.784 503.383 224.664C502.887 223.528 502.095 222.656 501.007 222.048C499.935 221.424 498.503 221.112 496.711 221.112H493.303V236.088ZM518.807 237L512.303 220.2H513.479L519.431 235.776L525.431 220.2H526.607L520.055 237H518.807ZM535.02 237V220.2H536.1V237H535.02ZM550.889 237.288C549.593 237.288 548.505 237.056 547.625 236.592C546.761 236.128 546.105 235.496 545.657 234.696C545.225 233.88 545.017 232.968 545.033 231.96H546.161C546.161 232.744 546.321 233.472 546.641 234.144C546.977 234.8 547.489 235.328 548.177 235.728C548.881 236.128 549.777 236.328 550.865 236.328C551.857 236.328 552.665 236.168 553.289 235.848C553.929 235.528 554.409 235.096 554.729 234.552C555.049 234.008 555.209 233.4 555.209 232.728C555.209 231.912 555.025 231.264 554.657 230.784C554.305 230.288 553.833 229.888 553.241 229.584C552.665 229.28 552.017 229.024 551.297 228.816C550.593 228.592 549.897 228.352 549.209 228.096C548.089 227.696 547.233 227.192 546.641 226.584C546.049 225.96 545.753 225.136 545.753 224.112C545.753 223.328 545.937 222.624 546.305 222C546.689 221.36 547.249 220.856 547.985 220.488C548.721 220.104 549.617 219.912 550.673 219.912C551.649 219.912 552.513 220.088 553.265 220.44C554.017 220.792 554.609 221.304 555.041 221.976C555.473 222.632 555.689 223.448 555.689 224.424H554.537C554.537 223.672 554.377 223.032 554.057 222.504C553.753 221.976 553.305 221.576 552.713 221.304C552.137 221.016 551.449 220.872 550.649 220.872C549.801 220.872 549.097 221.016 548.537 221.304C547.977 221.576 547.561 221.952 547.289 222.432C547.017 222.896 546.881 223.432 546.881 224.04C546.881 224.728 547.049 225.28 547.385 225.696C547.721 226.112 548.169 226.456 548.729 226.728C549.305 226.984 549.945 227.224 550.649 227.448C551.353 227.672 552.073 227.928 552.809 228.216C553.481 228.488 554.081 228.808 554.609 229.176C555.153 229.544 555.577 230.008 555.881 230.568C556.201 231.128 556.361 231.832 556.361 232.68C556.361 233.512 556.161 234.28 555.761 234.984C555.361 235.672 554.753 236.232 553.937 236.664C553.137 237.08 552.121 237.288 550.889 237.288ZM572.598 237.288C570.998 237.288 569.598 236.928 568.398 236.208C567.198 235.472 566.262 234.456 565.59 233.16C564.918 231.848 564.582 230.328 564.582 228.6C564.582 226.888 564.918 225.384 565.59 224.088C566.262 222.776 567.198 221.752 568.398 221.016C569.598 220.28 570.998 219.912 572.598 219.912C574.23 219.912 575.646 220.28 576.846 221.016C578.062 221.752 578.998 222.776 579.654 224.088C580.31 225.384 580.638 226.888 580.638 228.6C580.638 230.328 580.31 231.848 579.654 233.16C578.998 234.456 578.062 235.472 576.846 236.208C575.646 236.928 574.23 237.288 572.598 237.288ZM572.622 236.304C573.95 236.304 575.134 236 576.174 235.392C577.214 234.784 578.03 233.904 578.622 232.752C579.214 231.6 579.51 230.216 579.51 228.6C579.51 226.984 579.214 225.6 578.622 224.448C578.03 223.296 577.214 222.416 576.174 221.808C575.134 221.2 573.95 220.896 572.622 220.896C571.294 220.896 570.11 221.2 569.07 221.808C568.03 222.416 567.206 223.296 566.598 224.448C566.006 225.6 565.71 226.984 565.71 228.6C565.71 230.216 566.006 231.6 566.598 232.752C567.206 233.904 568.03 234.784 569.07 235.392C570.11 236 571.294 236.304 572.622 236.304ZM589.653 237V220.2H594.357C595.653 220.2 596.701 220.408 597.501 220.824C598.317 221.24 598.909 221.808 599.277 222.528C599.661 223.248 599.853 224.064 599.853 224.976C599.853 225.904 599.661 226.736 599.277 227.472C598.893 228.192 598.293 228.76 597.477 229.176C596.677 229.576 595.613 229.776 594.285 229.776H590.733V237H589.653ZM598.749 237L594.861 229.368H596.109L600.045 237H598.749ZM590.733 228.888H594.309C595.765 228.888 596.861 228.552 597.597 227.88C598.349 227.208 598.725 226.24 598.725 224.976C598.725 223.744 598.357 222.8 597.621 222.144C596.885 221.472 595.781 221.136 594.309 221.136H590.733V228.888ZM612.364 237V229.992L607.036 220.2H608.236L613.06 229.224H612.772L617.476 220.2H618.7L613.444 229.992V237H612.364Z"/>
</mask>
<path d="M292.936 237.288C291.64 237.288 290.552 237.056 289.672 236.592C288.808 236.128 288.152 235.496 287.704 234.696C287.272 233.88 287.064 232.968 287.08 231.96H288.208C288.208 232.744 288.368 233.472 288.688 234.144C289.024 234.8 289.536 235.328 290.224 235.728C290.928 236.128 291.824 236.328 292.912 236.328C293.904 236.328 294.712 236.168 295.336 235.848C295.976 235.528 296.456 235.096 296.776 234.552C297.096 234.008 297.256 233.4 297.256 232.728C297.256 231.912 297.072 231.264 296.704 230.784C296.352 230.288 295.88 229.888 295.288 229.584C294.712 229.28 294.064 229.024 293.344 228.816C292.64 228.592 291.944 228.352 291.256 228.096C290.136 227.696 289.28 227.192 288.688 226.584C288.096 225.96 287.8 225.136 287.8 224.112C287.8 223.328 287.984 222.624 288.352 222C288.736 221.36 289.296 220.856 290.032 220.488C290.768 220.104 291.664 219.912 292.72 219.912C293.696 219.912 294.56 220.088 295.312 220.44C296.064 220.792 296.656 221.304 297.088 221.976C297.52 222.632 297.736 223.448 297.736 224.424H296.584C296.584 223.672 296.424 223.032 296.104 222.504C295.8 221.976 295.352 221.576 294.76 221.304C294.184 221.016 293.496 220.872 292.696 220.872C291.848 220.872 291.144 221.016 290.584 221.304C290.024 221.576 289.608 221.952 289.336 222.432C289.064 222.896 288.928 223.432 288.928 224.04C288.928 224.728 289.096 225.28 289.432 225.696C289.768 226.112 290.216 226.456 290.776 226.728C291.352 226.984 291.992 227.224 292.696 227.448C293.4 227.672 294.12 227.928 294.856 228.216C295.528 228.488 296.128 228.808 296.656 229.176C297.2 229.544 297.624 230.008 297.928 230.568C298.248 231.128 298.408 231.832 298.408 232.68C298.408 233.512 298.208 234.28 297.808 234.984C297.408 235.672 296.8 236.232 295.984 236.664C295.184 237.08 294.168 237.288 292.936 237.288ZM310.699 237V221.112H305.611V220.2H316.843V221.112H311.779V237H310.699ZM325.442 237V220.2H330.146C331.442 220.2 332.49 220.408 333.29 220.824C334.106 221.24 334.698 221.808 335.066 222.528C335.45 223.248 335.642 224.064 335.642 224.976C335.642 225.904 335.45 226.736 335.066 227.472C334.682 228.192 334.082 228.76 333.266 229.176C332.466 229.576 331.402 229.776 330.074 229.776H326.522V237H325.442ZM334.538 237L330.65 229.368H331.898L335.834 237H334.538ZM326.522 228.888H330.098C331.554 228.888 332.65 228.552 333.386 227.88C334.138 227.208 334.514 226.24 334.514 224.976C334.514 223.744 334.146 222.8 333.41 222.144C332.674 221.472 331.57 221.136 330.098 221.136H326.522V228.888ZM343.862 237L350.03 220.2H351.182L357.278 237H356.126L350.582 221.592L344.99 237H343.862ZM346.478 231.672L346.838 230.76H354.326L354.686 231.672H346.478ZM367.746 237V221.112H362.658V220.2H373.89V221.112H368.826V237H367.746ZM382.489 237V220.2H392.353V221.112H383.569V228.12H391.633V229.056H383.569V236.088H392.353V237H382.489ZM408.622 237.288C407.07 237.288 405.718 236.92 404.566 236.184C403.414 235.448 402.518 234.432 401.878 233.136C401.238 231.824 400.918 230.304 400.918 228.576C400.918 226.864 401.246 225.36 401.902 224.064C402.558 222.752 403.478 221.736 404.662 221.016C405.862 220.28 407.262 219.912 408.862 219.912C410.67 219.912 412.174 220.344 413.374 221.208C414.574 222.072 415.374 223.304 415.774 224.904H414.526C414.222 223.704 413.598 222.744 412.654 222.024C411.71 221.288 410.446 220.92 408.862 220.92C407.518 220.92 406.334 221.232 405.31 221.856C404.286 222.464 403.486 223.336 402.91 224.472C402.334 225.608 402.046 226.976 402.046 228.576C402.046 230.144 402.326 231.512 402.886 232.68C403.446 233.832 404.214 234.72 405.19 235.344C406.182 235.968 407.326 236.28 408.622 236.28C410.638 236.28 412.166 235.664 413.206 234.432C414.246 233.184 414.83 231.416 414.958 229.128H409.534V228.24H416.086V237H415.126L414.934 233.208C414.55 234.088 414.062 234.832 413.47 235.44C412.894 236.048 412.206 236.512 411.406 236.832C410.606 237.136 409.678 237.288 408.622 237.288ZM425.403 237V220.2H426.483V237H425.403ZM443.312 237.288C441.728 237.288 440.344 236.928 439.16 236.208C437.992 235.472 437.088 234.456 436.448 233.16C435.808 231.848 435.488 230.328 435.488 228.6C435.488 226.872 435.808 225.36 436.448 224.064C437.088 222.752 437.992 221.736 439.16 221.016C440.344 220.28 441.728 219.912 443.312 219.912C445.152 219.912 446.632 220.336 447.752 221.184C448.872 222.016 449.608 223.2 449.96 224.736H448.76C448.472 223.584 447.88 222.656 446.984 221.952C446.104 221.248 444.88 220.896 443.312 220.896C441.984 220.896 440.816 221.2 439.808 221.808C438.816 222.416 438.032 223.296 437.456 224.448C436.896 225.6 436.616 226.984 436.616 228.6C436.616 230.216 436.896 231.6 437.456 232.752C438.032 233.888 438.816 234.768 439.808 235.392C440.816 236 441.984 236.304 443.312 236.304C444.864 236.304 446.088 235.952 446.984 235.248C447.896 234.528 448.488 233.592 448.76 232.44H449.96C449.608 233.976 448.872 235.168 447.752 236.016C446.632 236.864 445.152 237.288 443.312 237.288ZM469.933 237L476.101 220.2H477.253L483.349 237H482.197L476.653 221.592L471.061 237H469.933ZM472.549 231.672L472.909 230.76H480.397L480.757 231.672H472.549ZM492.223 237V220.2H496.639C498.623 220.2 500.247 220.536 501.511 221.208C502.791 221.864 503.735 222.824 504.343 224.088C504.967 225.352 505.279 226.88 505.279 228.672C505.279 230.336 504.983 231.792 504.391 233.04C503.815 234.288 502.903 235.264 501.655 235.968C500.407 236.656 498.767 237 496.735 237H492.223ZM493.303 236.088H496.711C498.471 236.088 499.895 235.792 500.983 235.2C502.071 234.592 502.871 233.736 503.383 232.632C503.895 231.528 504.151 230.208 504.151 228.672C504.151 227.12 503.895 225.784 503.383 224.664C502.887 223.528 502.095 222.656 501.007 222.048C499.935 221.424 498.503 221.112 496.711 221.112H493.303V236.088ZM518.807 237L512.303 220.2H513.479L519.431 235.776L525.431 220.2H526.607L520.055 237H518.807ZM535.02 237V220.2H536.1V237H535.02ZM550.889 237.288C549.593 237.288 548.505 237.056 547.625 236.592C546.761 236.128 546.105 235.496 545.657 234.696C545.225 233.88 545.017 232.968 545.033 231.96H546.161C546.161 232.744 546.321 233.472 546.641 234.144C546.977 234.8 547.489 235.328 548.177 235.728C548.881 236.128 549.777 236.328 550.865 236.328C551.857 236.328 552.665 236.168 553.289 235.848C553.929 235.528 554.409 235.096 554.729 234.552C555.049 234.008 555.209 233.4 555.209 232.728C555.209 231.912 555.025 231.264 554.657 230.784C554.305 230.288 553.833 229.888 553.241 229.584C552.665 229.28 552.017 229.024 551.297 228.816C550.593 228.592 549.897 228.352 549.209 228.096C548.089 227.696 547.233 227.192 546.641 226.584C546.049 225.96 545.753 225.136 545.753 224.112C545.753 223.328 545.937 222.624 546.305 222C546.689 221.36 547.249 220.856 547.985 220.488C548.721 220.104 549.617 219.912 550.673 219.912C551.649 219.912 552.513 220.088 553.265 220.44C554.017 220.792 554.609 221.304 555.041 221.976C555.473 222.632 555.689 223.448 555.689 224.424H554.537C554.537 223.672 554.377 223.032 554.057 222.504C553.753 221.976 553.305 221.576 552.713 221.304C552.137 221.016 551.449 220.872 550.649 220.872C549.801 220.872 549.097 221.016 548.537 221.304C547.977 221.576 547.561 221.952 547.289 222.432C547.017 222.896 546.881 223.432 546.881 224.04C546.881 224.728 547.049 225.28 547.385 225.696C547.721 226.112 548.169 226.456 548.729 226.728C549.305 226.984 549.945 227.224 550.649 227.448C551.353 227.672 552.073 227.928 552.809 228.216C553.481 228.488 554.081 228.808 554.609 229.176C555.153 229.544 555.577 230.008 555.881 230.568C556.201 231.128 556.361 231.832 556.361 232.68C556.361 233.512 556.161 234.28 555.761 234.984C555.361 235.672 554.753 236.232 553.937 236.664C553.137 237.08 552.121 237.288 550.889 237.288ZM572.598 237.288C570.998 237.288 569.598 236.928 568.398 236.208C567.198 235.472 566.262 234.456 565.59 233.16C564.918 231.848 564.582 230.328 564.582 228.6C564.582 226.888 564.918 225.384 565.59 224.088C566.262 222.776 567.198 221.752 568.398 221.016C569.598 220.28 570.998 219.912 572.598 219.912C574.23 219.912 575.646 220.28 576.846 221.016C578.062 221.752 578.998 222.776 579.654 224.088C580.31 225.384 580.638 226.888 580.638 228.6C580.638 230.328 580.31 231.848 579.654 233.16C578.998 234.456 578.062 235.472 576.846 236.208C575.646 236.928 574.23 237.288 572.598 237.288ZM572.622 236.304C573.95 236.304 575.134 236 576.174 235.392C577.214 234.784 578.03 233.904 578.622 232.752C579.214 231.6 579.51 230.216 579.51 228.6C579.51 226.984 579.214 225.6 578.622 224.448C578.03 223.296 577.214 222.416 576.174 221.808C575.134 221.2 573.95 220.896 572.622 220.896C571.294 220.896 570.11 221.2 569.07 221.808C568.03 222.416 567.206 223.296 566.598 224.448C566.006 225.6 565.71 226.984 565.71 228.6C565.71 230.216 566.006 231.6 566.598 232.752C567.206 233.904 568.03 234.784 569.07 235.392C570.11 236 571.294 236.304 572.622 236.304ZM589.653 237V220.2H594.357C595.653 220.2 596.701 220.408 597.501 220.824C598.317 221.24 598.909 221.808 599.277 222.528C599.661 223.248 599.853 224.064 599.853 224.976C599.853 225.904 599.661 226.736 599.277 227.472C598.893 228.192 598.293 228.76 597.477 229.176C596.677 229.576 595.613 229.776 594.285 229.776H590.733V237H589.653ZM598.749 237L594.861 229.368H596.109L600.045 237H598.749ZM590.733 228.888H594.309C595.765 228.888 596.861 228.552 597.597 227.88C598.349 227.208 598.725 226.24 598.725 224.976C598.725 223.744 598.357 222.8 597.621 222.144C596.885 221.472 595.781 221.136 594.309 221.136H590.733V228.888ZM612.364 237V229.992L607.036 220.2H608.236L613.06 229.224H612.772L617.476 220.2H618.7L613.444 229.992V237H612.364Z" fill="black"/>
<path d="M289.672 236.592L289.199 237.473L289.206 237.477L289.672 236.592ZM287.704 234.696L286.82 235.164L286.826 235.174L286.831 235.185L287.704 234.696ZM287.08 231.96V230.96H286.096L286.08 231.944L287.08 231.96ZM288.208 231.96H289.208V230.96H288.208V231.96ZM288.688 234.144L287.785 234.574L287.791 234.587L287.798 234.6L288.688 234.144ZM290.224 235.728L289.721 236.593L289.73 236.597L290.224 235.728ZM295.336 235.848L294.889 234.954L294.88 234.958L295.336 235.848ZM296.776 234.552L297.638 235.059L297.638 235.059L296.776 234.552ZM296.704 230.784L295.888 231.363L295.899 231.378L295.91 231.392L296.704 230.784ZM295.288 229.584L294.821 230.468L294.831 230.474L295.288 229.584ZM293.344 228.816L293.041 229.769L293.054 229.773L293.066 229.777L293.344 228.816ZM291.256 228.096L291.605 227.159L291.592 227.154L291.256 228.096ZM288.688 226.584L287.962 227.272L287.972 227.282L288.688 226.584ZM288.352 222L287.494 221.485L287.491 221.492L288.352 222ZM290.032 220.488L290.479 221.382L290.487 221.379L290.495 221.375L290.032 220.488ZM295.312 220.44L295.736 219.534L295.736 219.534L295.312 220.44ZM297.088 221.976L296.247 222.517L296.253 222.526L297.088 221.976ZM297.736 224.424V225.424H298.736V224.424H297.736ZM296.584 224.424H295.584V225.424H296.584V224.424ZM296.104 222.504L295.237 223.003L295.243 223.013L295.249 223.022L296.104 222.504ZM294.76 221.304L294.313 222.198L294.328 222.206L294.342 222.213L294.76 221.304ZM290.584 221.304L291.021 222.204L291.031 222.199L291.041 222.193L290.584 221.304ZM289.336 222.432L290.199 222.938L290.202 222.931L290.206 222.925L289.336 222.432ZM290.776 226.728L290.339 227.628L290.354 227.635L290.37 227.642L290.776 226.728ZM292.696 227.448L292.999 226.495H292.999L292.696 227.448ZM294.856 228.216L295.231 227.289L295.22 227.285L294.856 228.216ZM296.656 229.176L296.084 229.996L296.096 230.004L296.656 229.176ZM297.928 230.568L297.049 231.045L297.054 231.055L297.06 231.064L297.928 230.568ZM297.808 234.984L298.673 235.487L298.677 235.478L297.808 234.984ZM295.984 236.664L296.445 237.551L296.452 237.548L295.984 236.664ZM292.936 237.288V236.288C291.755 236.288 290.838 236.076 290.138 235.707L289.672 236.592L289.206 237.477C290.266 238.036 291.525 238.288 292.936 238.288V237.288ZM289.672 236.592L290.145 235.711C289.437 235.331 288.925 234.83 288.577 234.207L287.704 234.696L286.831 235.185C287.379 236.162 288.179 236.925 289.199 237.473L289.672 236.592ZM287.704 234.696L288.588 234.228C288.242 233.574 288.066 232.831 288.08 231.976L287.08 231.96L286.08 231.944C286.062 233.105 286.302 234.186 286.82 235.164L287.704 234.696ZM287.08 231.96V232.96H288.208V231.96V230.96H287.08V231.96ZM288.208 231.96H287.208C287.208 232.885 287.398 233.76 287.785 234.574L288.688 234.144L289.591 233.714C289.338 233.184 289.208 232.603 289.208 231.96H288.208ZM288.688 234.144L287.798 234.6C288.228 235.44 288.882 236.104 289.721 236.593L290.224 235.728L290.727 234.863C290.19 234.552 289.82 234.16 289.578 233.688L288.688 234.144ZM290.224 235.728L289.73 236.597C290.628 237.107 291.708 237.328 292.912 237.328V236.328V235.328C291.94 235.328 291.228 235.149 290.718 234.859L290.224 235.728ZM292.912 236.328V237.328C294.001 237.328 294.981 237.154 295.792 236.738L295.336 235.848L294.88 234.958C294.443 235.182 293.807 235.328 292.912 235.328V236.328ZM295.336 235.848L295.783 236.742C296.572 236.348 297.207 235.791 297.638 235.059L296.776 234.552L295.914 234.045C295.705 234.401 295.38 234.708 294.889 234.954L295.336 235.848ZM296.776 234.552L297.638 235.059C298.054 234.351 298.256 233.566 298.256 232.728H297.256H296.256C296.256 233.234 296.138 233.665 295.914 234.045L296.776 234.552ZM297.256 232.728H298.256C298.256 231.768 298.039 230.882 297.498 230.176L296.704 230.784L295.91 231.392C296.105 231.646 296.256 232.056 296.256 232.728H297.256ZM296.704 230.784L297.52 230.205C297.066 229.566 296.466 229.065 295.745 228.694L295.288 229.584L294.831 230.474C295.294 230.711 295.638 231.01 295.888 231.363L296.704 230.784ZM295.288 229.584L295.755 228.7C295.11 228.359 294.397 228.079 293.622 227.855L293.344 228.816L293.066 229.777C293.731 229.969 294.314 230.201 294.821 230.468L295.288 229.584ZM293.344 228.816L293.647 227.863C292.958 227.644 292.278 227.409 291.605 227.159L291.256 228.096L290.907 229.033C291.61 229.295 292.322 229.54 293.041 229.769L293.344 228.816ZM291.256 228.096L291.592 227.154C290.562 226.786 289.856 226.35 289.404 225.886L288.688 226.584L287.972 227.282C288.704 228.034 289.71 228.606 290.92 229.038L291.256 228.096ZM288.688 226.584L289.413 225.896C289.03 225.492 288.8 224.932 288.8 224.112H287.8H286.8C286.8 225.34 287.162 226.428 287.963 227.272L288.688 226.584ZM287.8 224.112H288.8C288.8 223.491 288.944 222.966 289.213 222.508L288.352 222L287.491 221.492C287.024 222.282 286.8 223.165 286.8 224.112H287.8ZM288.352 222L289.209 222.514C289.486 222.054 289.895 221.674 290.479 221.382L290.032 220.488L289.585 219.594C288.697 220.038 287.986 220.666 287.495 221.486L288.352 222ZM290.032 220.488L290.495 221.375C291.054 221.083 291.782 220.912 292.72 220.912V219.912V218.912C291.546 218.912 290.482 219.125 289.569 219.601L290.032 220.488ZM292.72 219.912V220.912C293.575 220.912 294.29 221.066 294.888 221.346L295.312 220.44L295.736 219.534C294.83 219.11 293.817 218.912 292.72 218.912V219.912ZM295.312 220.44L294.888 221.346C295.476 221.621 295.921 222.01 296.247 222.517L297.088 221.976L297.929 221.435C297.391 220.598 296.652 219.963 295.736 219.534L295.312 220.44ZM297.088 221.976L296.253 222.526C296.554 222.983 296.736 223.596 296.736 224.424H297.736H298.736C298.736 223.3 298.486 222.281 297.923 221.426L297.088 221.976ZM297.736 224.424V223.424H296.584V224.424V225.424H297.736V224.424ZM296.584 224.424H297.584C297.584 223.529 297.393 222.701 296.959 221.986L296.104 222.504L295.249 223.022C295.455 223.363 295.584 223.815 295.584 224.424H296.584ZM296.104 222.504L296.971 222.005C296.556 221.284 295.944 220.748 295.178 220.395L294.76 221.304L294.342 222.213C294.76 222.404 295.044 222.668 295.237 223.003L296.104 222.504ZM294.76 221.304L295.207 220.41C294.463 220.037 293.614 219.872 292.696 219.872V220.872V221.872C293.378 221.872 293.905 221.995 294.313 222.198L294.76 221.304ZM292.696 220.872V219.872C291.742 219.872 290.869 220.033 290.127 220.415L290.584 221.304L291.041 222.193C291.419 221.999 291.954 221.872 292.696 221.872V220.872ZM290.584 221.304L290.147 220.404C289.429 220.753 288.85 221.261 288.466 221.939L289.336 222.432L290.206 222.925C290.366 222.643 290.619 222.399 291.021 222.204L290.584 221.304ZM289.336 222.432L288.473 221.926C288.1 222.563 287.928 223.278 287.928 224.04H288.928H289.928C289.928 223.586 290.028 223.229 290.199 222.938L289.336 222.432ZM288.928 224.04H287.928C287.928 224.89 288.138 225.685 288.654 226.324L289.432 225.696L290.21 225.068C290.054 224.875 289.928 224.566 289.928 224.04H288.928ZM289.432 225.696L288.654 226.324C289.096 226.872 289.668 227.302 290.339 227.628L290.776 226.728L291.213 225.828C290.764 225.61 290.44 225.352 290.21 225.068L289.432 225.696ZM290.776 226.728L290.37 227.642C290.985 227.915 291.66 228.168 292.393 228.401L292.696 227.448L292.999 226.495C292.324 226.28 291.719 226.053 291.182 225.814L290.776 226.728ZM292.696 227.448L292.393 228.401C293.075 228.618 293.774 228.867 294.492 229.147L294.856 228.216L295.22 227.285C294.466 226.989 293.725 226.726 292.999 226.495L292.696 227.448ZM294.856 228.216L294.481 229.143C295.092 229.39 295.625 229.676 296.084 229.996L296.656 229.176L297.228 228.356C296.631 227.94 295.964 227.586 295.231 227.289L294.856 228.216ZM296.656 229.176L296.096 230.004C296.511 230.285 296.824 230.63 297.049 231.045L297.928 230.568L298.807 230.091C298.424 229.386 297.889 228.803 297.216 228.348L296.656 229.176ZM297.928 230.568L297.06 231.064C297.27 231.433 297.408 231.953 297.408 232.68H298.408H299.408C299.408 231.711 299.226 230.823 298.796 230.072L297.928 230.568ZM298.408 232.68H297.408C297.408 233.344 297.251 233.941 296.939 234.49L297.808 234.984L298.677 235.478C299.165 234.619 299.408 233.68 299.408 232.68H298.408ZM297.808 234.984L296.943 234.481C296.652 234.983 296.194 235.421 295.516 235.78L295.984 236.664L296.452 237.548C297.406 237.043 298.164 236.361 298.673 235.487L297.808 234.984ZM295.984 236.664L295.523 235.777C294.908 236.097 294.063 236.288 292.936 236.288V237.288V238.288C294.273 238.288 295.46 238.063 296.445 237.551L295.984 236.664ZM310.699 237H309.699V238H310.699V237ZM310.699 221.112H311.699V220.112H310.699V221.112ZM305.611 221.112H304.611V222.112H305.611V221.112ZM305.611 220.2V219.2H304.611V220.2H305.611ZM316.843 220.2H317.843V219.2H316.843V220.2ZM316.843 221.112V222.112H317.843V221.112H316.843ZM311.779 221.112V220.112H310.779V221.112H311.779ZM311.779 237V238H312.779V237H311.779ZM310.699 237H311.699V221.112H310.699H309.699V237H310.699ZM310.699 221.112V220.112H305.611V221.112V222.112H310.699V221.112ZM305.611 221.112H306.611V220.2H305.611H304.611V221.112H305.611ZM305.611 220.2V221.2H316.843V220.2V219.2H305.611V220.2ZM316.843 220.2H315.843V221.112H316.843H317.843V220.2H316.843ZM316.843 221.112V220.112H311.779V221.112V222.112H316.843V221.112ZM311.779 221.112H310.779V237H311.779H312.779V221.112H311.779ZM311.779 237V236H310.699V237V238H311.779V237ZM325.442 237H324.442V238H325.442V237ZM325.442 220.2V219.2H324.442V220.2H325.442ZM333.29 220.824L332.828 221.711L332.836 221.715L333.29 220.824ZM335.066 222.528L334.175 222.983L334.179 222.991L334.183 222.999L335.066 222.528ZM335.066 227.472L335.948 227.943L335.952 227.935L335.066 227.472ZM333.266 229.176L333.713 230.07L333.72 230.067L333.266 229.176ZM326.522 229.776V228.776H325.522V229.776H326.522ZM326.522 237V238H327.522V237H326.522ZM334.538 237L333.647 237.454L333.925 238H334.538V237ZM330.65 229.368V228.368H329.018L329.759 229.822L330.65 229.368ZM331.898 229.368L332.787 228.91L332.507 228.368H331.898V229.368ZM335.834 237V238H337.475L336.723 236.542L335.834 237ZM326.522 228.888H325.522V229.888H326.522V228.888ZM333.386 227.88L332.719 227.134L332.711 227.142L333.386 227.88ZM333.41 222.144L332.735 222.883L332.744 222.891L333.41 222.144ZM326.522 221.136V220.136H325.522V221.136H326.522ZM325.442 237H326.442V220.2H325.442H324.442V237H325.442ZM325.442 220.2V221.2H330.146V220.2V219.2H325.442V220.2ZM330.146 220.2V221.2C331.347 221.2 332.219 221.395 332.828 221.711L333.29 220.824L333.751 219.937C332.76 219.421 331.537 219.2 330.146 219.2V220.2ZM333.29 220.824L332.836 221.715C333.49 222.048 333.916 222.475 334.175 222.983L335.066 222.528L335.956 222.073C335.48 221.141 334.722 220.432 333.744 219.933L333.29 220.824ZM335.066 222.528L334.183 222.999C334.481 223.557 334.642 224.209 334.642 224.976H335.642H336.642C336.642 223.919 336.418 222.939 335.948 222.057L335.066 222.528ZM335.642 224.976H334.642C334.642 225.762 334.48 226.432 334.179 227.009L335.066 227.472L335.952 227.935C336.419 227.04 336.642 226.046 336.642 224.976H335.642ZM335.066 227.472L334.183 227.001C333.907 227.519 333.468 227.95 332.812 228.285L333.266 229.176L333.72 230.067C334.695 229.57 335.456 228.865 335.948 227.943L335.066 227.472ZM333.266 229.176L332.819 228.282C332.208 228.587 331.316 228.776 330.074 228.776V229.776V230.776C331.488 230.776 332.723 230.565 333.713 230.07L333.266 229.176ZM330.074 229.776V228.776H326.522V229.776V230.776H330.074V229.776ZM326.522 229.776H325.522V237H326.522H327.522V229.776H326.522ZM326.522 237V236H325.442V237V238H326.522V237ZM334.538 237L335.429 236.546L331.541 228.914L330.65 229.368L329.759 229.822L333.647 237.454L334.538 237ZM330.65 229.368V230.368H331.898V229.368V228.368H330.65V229.368ZM331.898 229.368L331.009 229.826L334.945 237.458L335.834 237L336.723 236.542L332.787 228.91L331.898 229.368ZM335.834 237V236H334.538V237V238H335.834V237ZM326.522 228.888V229.888H330.098V228.888V227.888H326.522V228.888ZM330.098 228.888V229.888C331.69 229.888 333.07 229.522 334.06 228.618L333.386 227.88L332.711 227.142C332.229 227.582 331.418 227.888 330.098 227.888V228.888ZM333.386 227.88L334.052 228.626C335.068 227.718 335.514 226.447 335.514 224.976H334.514H333.514C333.514 226.033 333.207 226.698 332.719 227.134L333.386 227.88ZM334.514 224.976H335.514C335.514 223.535 335.075 222.289 334.075 221.397L333.41 222.144L332.744 222.891C333.216 223.311 333.514 223.953 333.514 224.976H334.514ZM333.41 222.144L334.084 221.406C333.093 220.5 331.703 220.136 330.098 220.136V221.136V222.136C331.437 222.136 332.255 222.444 332.735 222.882L333.41 222.144ZM330.098 221.136V220.136H326.522V221.136V222.136H330.098V221.136ZM326.522 221.136H325.522V228.888H326.522H327.522V221.136H326.522ZM343.862 237L342.924 236.655L342.43 238H343.862V237ZM350.03 220.2V219.2H349.332L349.092 219.855L350.03 220.2ZM351.182 220.2L352.122 219.859L351.883 219.2H351.182V220.2ZM357.278 237V238H358.705L358.218 236.659L357.278 237ZM356.126 237L355.185 237.339L355.423 238H356.126V237ZM350.582 221.592L351.523 221.253L350.586 218.65L349.642 221.251L350.582 221.592ZM344.99 237V238H345.691L345.93 237.341L344.99 237ZM346.478 231.672L345.548 231.305L345.008 232.672H346.478V231.672ZM346.838 230.76V229.76H346.158L345.908 230.393L346.838 230.76ZM354.326 230.76L355.256 230.393L355.007 229.76H354.326V230.76ZM354.686 231.672V232.672H356.156L355.616 231.305L354.686 231.672ZM343.862 237L344.801 237.345L350.969 220.545L350.03 220.2L349.092 219.855L342.924 236.655L343.862 237ZM350.03 220.2V221.2H351.182V220.2V219.2H350.03V220.2ZM351.182 220.2L350.242 220.541L356.338 237.341L357.278 237L358.218 236.659L352.122 219.859L351.182 220.2ZM357.278 237V236H356.126V237V238H357.278V237ZM356.126 237L357.067 236.661L351.523 221.253L350.582 221.592L349.641 221.931L355.185 237.339L356.126 237ZM350.582 221.592L349.642 221.251L344.05 236.659L344.99 237L345.93 237.341L351.522 221.933L350.582 221.592ZM344.99 237V236H343.862V237V238H344.99V237ZM346.478 231.672L347.408 232.039L347.768 231.127L346.838 230.76L345.908 230.393L345.548 231.305L346.478 231.672ZM346.838 230.76V231.76H354.326V230.76V229.76H346.838V230.76ZM354.326 230.76L353.396 231.127L353.756 232.039L354.686 231.672L355.616 231.305L355.256 230.393L354.326 230.76ZM354.686 231.672V230.672H346.478V231.672V232.672H354.686V231.672ZM367.745 237H366.745V238H367.745V237ZM367.745 221.112H368.745V220.112H367.745V221.112ZM362.658 221.112H361.658V222.112H362.658V221.112ZM362.658 220.2V219.2H361.658V220.2H362.658ZM373.89 220.2H374.89V219.2H373.89V220.2ZM373.89 221.112V222.112H374.89V221.112H373.89ZM368.826 221.112V220.112H367.826V221.112H368.826ZM368.826 237V238H369.826V237H368.826ZM367.745 237H368.745V221.112H367.745H366.745V237H367.745ZM367.745 221.112V220.112H362.658V221.112V222.112H367.745V221.112ZM362.658 221.112H363.658V220.2H362.658H361.658V221.112H362.658ZM362.658 220.2V221.2H373.89V220.2V219.2H362.658V220.2ZM373.89 220.2H372.89V221.112H373.89H374.89V220.2H373.89ZM373.89 221.112V220.112H368.826V221.112V222.112H373.89V221.112ZM368.826 221.112H367.826V237H368.826H369.826V221.112H368.826ZM368.826 237V236H367.745V237V238H368.826V237ZM382.489 237H381.489V238H382.489V237ZM382.489 220.2V219.2H381.489V220.2H382.489ZM392.353 220.2H393.353V219.2H392.353V220.2ZM392.353 221.112V222.112H393.353V221.112H392.353ZM383.569 221.112V220.112H382.569V221.112H383.569ZM383.569 228.12H382.569V229.12H383.569V228.12ZM391.633 228.12H392.633V227.12H391.633V228.12ZM391.633 229.056V230.056H392.633V229.056H391.633ZM383.569 229.056V228.056H382.569V229.056H383.569ZM383.569 236.088H382.569V237.088H383.569V236.088ZM392.353 236.088H393.353V235.088H392.353V236.088ZM392.353 237V238H393.353V237H392.353ZM382.489 237H383.489V220.2H382.489H381.489V237H382.489ZM382.489 220.2V221.2H392.353V220.2V219.2H382.489V220.2ZM392.353 220.2H391.353V221.112H392.353H393.353V220.2H392.353ZM392.353 221.112V220.112H383.569V221.112V222.112H392.353V221.112ZM383.569 221.112H382.569V228.12H383.569H384.569V221.112H383.569ZM383.569 228.12V229.12H391.633V228.12V227.12H383.569V228.12ZM391.633 228.12H390.633V229.056H391.633H392.633V228.12H391.633ZM391.633 229.056V228.056H383.569V229.056V230.056H391.633V229.056ZM383.569 229.056H382.569V236.088H383.569H384.569V229.056H383.569ZM383.569 236.088V237.088H392.353V236.088V235.088H383.569V236.088ZM392.353 236.088H391.353V237H392.353H393.353V236.088H392.353ZM392.353 237V236H382.489V237V238H392.353V237ZM404.566 236.184L404.027 237.027V237.027L404.566 236.184ZM401.878 233.136L400.979 233.574L400.981 233.579L401.878 233.136ZM401.902 224.064L402.794 224.516L402.796 224.511L401.902 224.064ZM404.662 221.016L405.181 221.87L405.184 221.868L404.662 221.016ZM413.374 221.208L413.958 220.396V220.396L413.374 221.208ZM415.774 224.904V225.904H417.054L416.744 224.661L415.774 224.904ZM414.526 224.904L413.556 225.15L413.747 225.904H414.526V224.904ZM412.654 222.024L412.039 222.813L412.047 222.819L412.654 222.024ZM405.31 221.856L405.82 222.716L405.83 222.71L405.31 221.856ZM402.91 224.472L403.802 224.924V224.924L402.91 224.472ZM402.886 232.68L401.984 233.112L401.986 233.117L402.886 232.68ZM405.19 235.344L404.651 236.187L404.657 236.19L405.19 235.344ZM413.206 234.432L413.97 235.077L413.974 235.072L413.206 234.432ZM414.958 229.128L415.956 229.184L416.015 228.128H414.958V229.128ZM409.534 229.128H408.534V230.128H409.534V229.128ZM409.534 228.24V227.24H408.534V228.24H409.534ZM416.086 228.24H417.086V227.24H416.086V228.24ZM416.086 237V238H417.086V237H416.086ZM415.126 237L414.127 237.051L414.175 238H415.126V237ZM414.934 233.208L415.932 233.157L414.017 232.808L414.934 233.208ZM413.47 235.44L412.753 234.742L412.744 234.752L413.47 235.44ZM411.406 236.832L411.761 237.767L411.769 237.764L411.777 237.76L411.406 236.832ZM408.622 237.288V236.288C407.234 236.288 406.074 235.961 405.104 235.341L404.566 236.184L404.027 237.027C405.361 237.879 406.905 238.288 408.622 238.288V237.288ZM404.566 236.184L405.104 235.341C404.115 234.709 403.338 233.836 402.774 232.693L401.878 233.136L400.981 233.579C401.697 235.028 402.713 236.187 404.027 237.027L404.566 236.184ZM401.878 233.136L402.776 232.698C402.214 231.545 401.918 230.18 401.918 228.576H400.918H399.918C399.918 230.428 400.261 232.103 400.979 233.574L401.878 233.136ZM400.918 228.576H401.918C401.918 226.993 402.22 225.649 402.794 224.516L401.902 224.064L401.009 223.612C400.271 225.071 399.918 226.735 399.918 228.576H400.918ZM401.902 224.064L402.796 224.511C403.373 223.357 404.168 222.487 405.181 221.87L404.662 221.016L404.142 220.162C402.788 220.985 401.742 222.147 401.007 223.617L401.902 224.064ZM404.662 221.016L405.184 221.868C406.207 221.242 407.42 220.912 408.862 220.912V219.912V218.912C407.103 218.912 405.517 219.318 404.139 220.164L404.662 221.016ZM408.862 219.912V220.912C410.507 220.912 411.794 221.303 412.789 222.02L413.374 221.208L413.958 220.396C412.553 219.385 410.832 218.912 408.862 218.912V219.912ZM413.374 221.208L412.789 222.02C413.775 222.729 414.454 223.748 414.803 225.147L415.774 224.904L416.744 224.661C416.294 222.86 415.372 221.415 413.958 220.396L413.374 221.208ZM415.774 224.904V223.904H414.526V224.904V225.904H415.774V224.904ZM414.526 224.904L415.495 224.658C415.138 223.25 414.392 222.092 413.26 221.229L412.654 222.024L412.047 222.819C412.804 223.396 413.305 224.158 413.556 225.15L414.526 224.904ZM412.654 222.024L413.268 221.235C412.099 220.324 410.596 219.92 408.862 219.92V220.92V221.92C410.295 221.92 411.32 222.252 412.039 222.813L412.654 222.024ZM408.862 220.92V219.92C407.357 219.92 405.988 220.271 404.789 221.002L405.31 221.856L405.83 222.71C406.679 222.193 407.678 221.92 408.862 221.92V220.92ZM405.31 221.856L404.799 220.996C403.6 221.708 402.673 222.727 402.018 224.02L402.91 224.472L403.802 224.924C404.298 223.945 404.971 223.22 405.82 222.716L405.31 221.856ZM402.91 224.472L402.018 224.02C401.355 225.327 401.046 226.858 401.046 228.576H402.046H403.046C403.046 227.094 403.312 225.889 403.802 224.924L402.91 224.472ZM402.046 228.576H401.046C401.046 230.263 401.347 231.784 401.984 233.112L402.886 232.68L403.787 232.248C403.304 231.24 403.046 230.025 403.046 228.576H402.046ZM402.886 232.68L401.986 233.117C402.618 234.417 403.504 235.453 404.651 236.187L405.19 235.344L405.728 234.501C404.924 233.987 404.273 233.247 403.785 232.243L402.886 232.68ZM405.19 235.344L404.657 236.19C405.825 236.925 407.158 237.28 408.622 237.28V236.28V235.28C407.493 235.28 406.538 235.011 405.722 234.498L405.19 235.344ZM408.622 236.28V237.28C410.852 237.28 412.694 236.589 413.97 235.077L413.206 234.432L412.441 233.787C411.638 234.739 410.423 235.28 408.622 235.28V236.28ZM413.206 234.432L413.974 235.072C415.198 233.604 415.821 231.601 415.956 229.184L414.958 229.128L413.959 229.072C413.838 231.231 413.294 232.764 412.437 233.792L413.206 234.432ZM414.958 229.128V228.128H409.534V229.128V230.128H414.958V229.128ZM409.534 229.128H410.534V228.24H409.534H408.534V229.128H409.534ZM409.534 228.24V229.24H416.086V228.24V227.24H409.534V228.24ZM416.086 228.24H415.086V237H416.086H417.086V228.24H416.086ZM416.086 237V236H415.126V237V238H416.086V237ZM415.126 237L416.124 236.949L415.932 233.157L414.934 233.208L413.935 233.259L414.127 237.051L415.126 237ZM414.934 233.208L414.017 232.808C413.675 233.592 413.251 234.231 412.753 234.742L413.47 235.44L414.186 236.138C414.872 235.433 415.424 234.584 415.85 233.608L414.934 233.208ZM413.47 235.44L412.744 234.752C412.27 235.252 411.704 235.636 411.034 235.904L411.406 236.832L411.777 237.76C412.707 237.388 413.517 236.844 414.196 236.128L413.47 235.44ZM411.406 236.832L411.05 235.897C410.387 236.149 409.584 236.288 408.622 236.288V237.288V238.288C409.772 238.288 410.824 238.123 411.761 237.767L411.406 236.832ZM425.403 237H424.403V238H425.403V237ZM425.403 220.2V219.2H424.403V220.2H425.403ZM426.483 220.2H427.483V219.2H426.483V220.2ZM426.483 237V238H427.483V237H426.483ZM425.403 237H426.403V220.2H425.403H424.403V237H425.403ZM425.403 220.2V221.2H426.483V220.2V219.2H425.403V220.2ZM426.483 220.2H425.483V237H426.483H427.483V220.2H426.483ZM426.483 237V236H425.403V237V238H426.483V237ZM439.16 236.208L438.627 237.054L438.634 237.058L438.64 237.062L439.16 236.208ZM436.448 233.16L435.549 233.598L435.551 233.603L436.448 233.16ZM436.448 224.064L437.345 224.507L437.347 224.502L436.448 224.064ZM439.16 221.016L439.685 221.867L439.688 221.865L439.16 221.016ZM447.752 221.184L447.148 221.981L447.156 221.987L447.752 221.184ZM449.96 224.736V225.736H451.215L450.935 224.513L449.96 224.736ZM448.76 224.736L447.79 224.979L447.979 225.736H448.76V224.736ZM446.984 221.952L446.359 222.733L446.366 222.738L446.984 221.952ZM439.808 221.808L439.291 220.952L439.285 220.955L439.808 221.808ZM437.456 224.448L436.561 224.001L436.557 224.011L437.456 224.448ZM437.456 232.752L436.557 233.189L436.56 233.197L436.564 233.204L437.456 232.752ZM439.808 235.392L439.275 236.238L439.283 236.243L439.291 236.248L439.808 235.392ZM446.984 235.248L447.602 236.034L447.604 236.033L446.984 235.248ZM448.76 232.44V231.44H447.969L447.787 232.21L448.76 232.44ZM449.96 232.44L450.935 232.663L451.215 231.44H449.96V232.44ZM447.752 236.016L448.356 236.813L447.752 236.016ZM443.312 237.288V236.288C441.884 236.288 440.686 235.965 439.68 235.354L439.16 236.208L438.64 237.062C440.002 237.891 441.571 238.288 443.312 238.288V237.288ZM439.16 236.208L439.693 235.362C438.689 234.729 437.907 233.856 437.345 232.717L436.448 233.16L435.551 233.603C436.269 235.056 437.295 236.215 438.627 237.054L439.16 236.208ZM436.448 233.16L437.347 232.722C436.784 231.569 436.488 230.204 436.488 228.6H435.488H434.488C434.488 230.452 434.831 232.127 435.549 233.598L436.448 233.16ZM435.488 228.6H436.488C436.488 226.996 436.785 225.641 437.345 224.507L436.448 224.064L435.551 223.621C434.831 225.079 434.488 226.748 434.488 228.6H435.488ZM436.448 224.064L437.347 224.502C437.909 223.349 438.688 222.481 439.685 221.867L439.16 221.016L438.635 220.165C437.295 220.991 436.267 222.155 435.549 223.626L436.448 224.064ZM439.16 221.016L439.688 221.865C440.693 221.241 441.888 220.912 443.312 220.912V219.912V218.912C441.567 218.912 439.995 219.319 438.632 220.167L439.16 221.016ZM443.312 219.912V220.912C445.002 220.912 446.249 221.3 447.148 221.981L447.752 221.184L448.356 220.387C447.015 219.372 445.302 218.912 443.312 218.912V219.912ZM447.752 221.184L447.156 221.987C448.06 222.658 448.679 223.623 448.985 224.959L449.96 224.736L450.935 224.513C450.537 222.777 449.684 221.374 448.348 220.381L447.752 221.184ZM449.96 224.736V223.736H448.76V224.736V225.736H449.96V224.736ZM448.76 224.736L449.73 224.493C449.391 223.136 448.68 222.013 447.602 221.166L446.984 221.952L446.366 222.738C447.08 223.299 447.553 224.032 447.79 224.979L448.76 224.736ZM446.984 221.952L447.609 221.171C446.493 220.279 445.019 219.896 443.312 219.896V220.896V221.896C444.74 221.896 445.715 222.217 446.359 222.733L446.984 221.952ZM443.312 220.896V219.896C441.826 219.896 440.475 220.238 439.291 220.952L439.808 221.808L440.324 222.664C441.157 222.162 442.142 221.896 443.312 221.896V220.896ZM439.808 221.808L439.285 220.955C438.117 221.671 437.212 222.7 436.562 224.001L437.456 224.448L438.35 224.895C438.852 223.892 439.515 223.161 440.331 222.661L439.808 221.808ZM437.456 224.448L436.557 224.011C435.915 225.33 435.616 226.871 435.616 228.6H436.616H437.616C437.616 227.097 437.877 225.87 438.355 224.885L437.456 224.448ZM436.616 228.6H435.616C435.616 230.329 435.915 231.87 436.557 233.189L437.456 232.752L438.355 232.315C437.877 231.33 437.616 230.103 437.616 228.6H436.616ZM437.456 232.752L436.564 233.204C437.215 234.487 438.117 235.51 439.275 236.238L439.808 235.392L440.34 234.546C439.515 234.026 438.849 233.289 438.348 232.3L437.456 232.752ZM439.808 235.392L439.291 236.248C440.475 236.962 441.826 237.304 443.312 237.304V236.304V235.304C442.142 235.304 441.157 235.038 440.324 234.536L439.808 235.392ZM443.312 236.304V237.304C445.008 237.304 446.475 236.919 447.602 236.034L446.984 235.248L446.366 234.462C445.701 234.985 444.72 235.304 443.312 235.304V236.304ZM446.984 235.248L447.604 236.033C448.696 235.17 449.41 234.037 449.733 232.67L448.76 232.44L447.787 232.21C447.566 233.147 447.096 233.886 446.364 234.463L446.984 235.248ZM448.76 232.44V233.44H449.96V232.44V231.44H448.76V232.44ZM449.96 232.44L448.985 232.217C448.679 233.553 448.058 234.53 447.148 235.219L447.752 236.016L448.356 236.813C449.686 235.806 450.537 234.399 450.935 232.663L449.96 232.44ZM447.752 236.016L447.148 235.219C446.249 235.9 445.002 236.288 443.312 236.288V237.288V238.288C445.302 238.288 447.015 237.828 448.356 236.813L447.752 236.016ZM469.933 237L468.994 236.655L468.5 238H469.933V237ZM476.101 220.2V219.2H475.402L475.162 219.855L476.101 220.2ZM477.253 220.2L478.193 219.859L477.954 219.2H477.253V220.2ZM483.349 237V238H484.775L484.289 236.659L483.349 237ZM482.197 237L481.256 237.339L481.494 238H482.197V237ZM476.653 221.592L477.594 221.253L476.657 218.65L475.713 221.251L476.653 221.592ZM471.061 237V238H471.762L472.001 237.341L471.061 237ZM472.549 231.672L471.618 231.305L471.079 232.672H472.549V231.672ZM472.909 230.76V229.76H472.228L471.978 230.393L472.909 230.76ZM480.397 230.76L481.327 230.393L481.077 229.76H480.397V230.76ZM480.757 231.672V232.672H482.226L481.687 231.305L480.757 231.672ZM469.933 237L470.871 237.345L477.039 220.545L476.101 220.2L475.162 219.855L468.994 236.655L469.933 237ZM476.101 220.2V221.2H477.253V220.2V219.2H476.101V220.2ZM477.253 220.2L476.313 220.541L482.409 237.341L483.349 237L484.289 236.659L478.193 219.859L477.253 220.2ZM483.349 237V236H482.197V237V238H483.349V237ZM482.197 237L483.138 236.661L477.594 221.253L476.653 221.592L475.712 221.931L481.256 237.339L482.197 237ZM476.653 221.592L475.713 221.251L470.121 236.659L471.061 237L472.001 237.341L477.593 221.933L476.653 221.592ZM471.061 237V236H469.933V237V238H471.061V237ZM472.549 231.672L473.479 232.039L473.839 231.127L472.909 230.76L471.978 230.393L471.618 231.305L472.549 231.672ZM472.909 230.76V231.76H480.397V230.76V229.76H472.909V230.76ZM480.397 230.76L479.466 231.127L479.826 232.039L480.757 231.672L481.687 231.305L481.327 230.393L480.397 230.76ZM480.757 231.672V230.672H472.549V231.672V232.672H480.757V231.672ZM492.223 237H491.223V238H492.223V237ZM492.223 220.2V219.2H491.223V220.2H492.223ZM501.511 221.208L501.042 222.091L501.048 222.095L501.055 222.098L501.511 221.208ZM504.343 224.088L503.442 224.521L503.446 224.531L504.343 224.088ZM504.391 233.04L503.487 232.611L503.483 232.621L504.391 233.04ZM501.655 235.968L502.138 236.844L502.146 236.839L501.655 235.968ZM493.303 236.088H492.303V237.088H493.303V236.088ZM500.983 235.2L501.461 236.078L501.471 236.073L500.983 235.2ZM503.383 232.632L504.29 233.053V233.053L503.383 232.632ZM503.383 224.664L502.467 225.064L502.47 225.072L502.474 225.08L503.383 224.664ZM501.007 222.048L500.504 222.912L500.512 222.917L500.519 222.921L501.007 222.048ZM493.303 221.112V220.112H492.303V221.112H493.303ZM492.223 237H493.223V220.2H492.223H491.223V237H492.223ZM492.223 220.2V221.2H496.639V220.2V219.2H492.223V220.2ZM496.639 220.2V221.2C498.519 221.2 499.967 221.52 501.042 222.091L501.511 221.208L501.98 220.325C500.527 219.552 498.727 219.2 496.639 219.2V220.2ZM501.511 221.208L501.055 222.098C502.146 222.657 502.931 223.459 503.442 224.521L504.343 224.088L505.244 223.655C504.539 222.189 503.436 221.071 501.967 220.318L501.511 221.208ZM504.343 224.088L503.446 224.531C503.986 225.625 504.279 226.993 504.279 228.672H505.279H506.279C506.279 226.767 505.948 225.079 505.24 223.645L504.343 224.088ZM505.279 228.672H504.279C504.279 230.218 504.004 231.522 503.488 232.611L504.391 233.04L505.295 233.469C505.962 232.062 506.279 230.454 506.279 228.672H505.279ZM504.391 233.04L503.483 232.621C502.999 233.67 502.237 234.492 501.164 235.097L501.655 235.968L502.146 236.839C503.569 236.036 504.631 234.906 505.299 233.459L504.391 233.04ZM501.655 235.968L501.172 235.092C500.122 235.671 498.666 236 496.735 236V237V238C498.868 238 500.692 237.641 502.138 236.844L501.655 235.968ZM496.735 237V236H492.223V237V238H496.735V237ZM493.303 236.088V237.088H496.711V236.088V235.088H493.303V236.088ZM496.711 236.088V237.088C498.572 237.088 500.178 236.777 501.461 236.078L500.983 235.2L500.505 234.322C499.612 234.807 498.37 235.088 496.711 235.088V236.088ZM500.983 235.2L501.471 236.073C502.738 235.365 503.687 234.353 504.29 233.053L503.383 232.632L502.476 232.211C502.055 233.119 501.404 233.819 500.495 234.327L500.983 235.2ZM503.383 232.632L504.29 233.053C504.877 231.787 505.151 230.316 505.151 228.672H504.151H503.151C503.151 230.1 502.913 231.269 502.476 232.211L503.383 232.632ZM504.151 228.672H505.151C505.151 227.013 504.878 225.528 504.292 224.248L503.383 224.664L502.474 225.08C502.912 226.04 503.151 227.227 503.151 228.672H504.151ZM503.383 224.664L504.299 224.264C503.716 222.926 502.772 221.889 501.495 221.175L501.007 222.048L500.519 222.921C501.418 223.423 502.058 224.13 502.467 225.064L503.383 224.664ZM501.007 222.048L501.51 221.184C500.232 220.44 498.606 220.112 496.711 220.112V221.112V222.112C498.4 222.112 499.638 222.408 500.504 222.912L501.007 222.048ZM496.711 221.112V220.112H493.303V221.112V222.112H496.711V221.112ZM493.303 221.112H492.303V236.088H493.303H494.303V221.112H493.303ZM518.807 237L517.875 237.361L518.122 238H518.807V237ZM512.303 220.2V219.2H510.844L511.371 220.561L512.303 220.2ZM513.479 220.2L514.413 219.843L514.168 219.2H513.479V220.2ZM519.431 235.776L518.497 236.133L519.427 238.568L520.364 236.135L519.431 235.776ZM525.431 220.2V219.2H524.745L524.498 219.841L525.431 220.2ZM526.607 220.2L527.539 220.563L528.07 219.2H526.607V220.2ZM520.055 237V238H520.738L520.987 237.363L520.055 237ZM518.807 237L519.74 236.639L513.236 219.839L512.303 220.2L511.371 220.561L517.875 237.361L518.807 237ZM512.303 220.2V221.2H513.479V220.2V219.2H512.303V220.2ZM513.479 220.2L512.545 220.557L518.497 236.133L519.431 235.776L520.365 235.419L514.413 219.843L513.479 220.2ZM519.431 235.776L520.364 236.135L526.364 220.559L525.431 220.2L524.498 219.841L518.498 235.417L519.431 235.776ZM525.431 220.2V221.2H526.607V220.2V219.2H525.431V220.2ZM526.607 220.2L525.675 219.837L519.123 236.637L520.055 237L520.987 237.363L527.539 220.563L526.607 220.2ZM520.055 237V236H518.807V237V238H520.055V237ZM535.02 237H534.02V238H535.02V237ZM535.02 220.2V219.2H534.02V220.2H535.02ZM536.1 220.2H537.1V219.2H536.1V220.2ZM536.1 237V238H537.1V237H536.1ZM535.02 237H536.02V220.2H535.02H534.02V237H535.02ZM535.02 220.2V221.2H536.1V220.2V219.2H535.02V220.2ZM536.1 220.2H535.1V237H536.1H537.1V220.2H536.1ZM536.1 237V236H535.02V237V238H536.1V237ZM547.625 236.592L547.152 237.473L547.159 237.477L547.625 236.592ZM545.657 234.696L544.773 235.164L544.779 235.174L544.785 235.185L545.657 234.696ZM545.033 231.96V230.96H544.049L544.033 231.944L545.033 231.96ZM546.161 231.96H547.161V230.96H546.161V231.96ZM546.641 234.144L545.738 234.574L545.744 234.587L545.751 234.6L546.641 234.144ZM548.177 235.728L547.674 236.593L547.683 236.597L548.177 235.728ZM553.289 235.848L552.842 234.954L552.833 234.958L553.289 235.848ZM554.729 234.552L555.591 235.059V235.059L554.729 234.552ZM554.657 230.784L553.842 231.363L553.852 231.378L553.864 231.392L554.657 230.784ZM553.241 229.584L552.774 230.468L552.784 230.474L553.241 229.584ZM551.297 228.816L550.994 229.769L551.007 229.773L551.02 229.777L551.297 228.816ZM549.209 228.096L549.558 227.159L549.545 227.154L549.209 228.096ZM546.641 226.584L545.916 227.272L545.925 227.282L546.641 226.584ZM546.305 222L545.448 221.485L545.444 221.492L546.305 222ZM547.985 220.488L548.432 221.382L548.44 221.379L548.448 221.375L547.985 220.488ZM553.265 220.44L553.689 219.534V219.534L553.265 220.44ZM555.041 221.976L554.2 222.517L554.206 222.526L555.041 221.976ZM555.689 224.424V225.424H556.689V224.424H555.689ZM554.537 224.424H553.537V225.424H554.537V224.424ZM554.057 222.504L553.19 223.003L553.196 223.013L553.202 223.022L554.057 222.504ZM552.713 221.304L552.266 222.198L552.281 222.206L552.296 222.213L552.713 221.304ZM548.537 221.304L548.974 222.204L548.984 222.199L548.994 222.193L548.537 221.304ZM547.289 222.432L548.152 222.938L548.156 222.931L548.159 222.925L547.289 222.432ZM548.729 226.728L548.292 227.628L548.307 227.635L548.323 227.642L548.729 226.728ZM550.649 227.448L550.952 226.495V226.495L550.649 227.448ZM552.809 228.216L553.184 227.289L553.174 227.285L552.809 228.216ZM554.609 229.176L554.037 229.996L554.049 230.004L554.609 229.176ZM555.881 230.568L555.002 231.045L555.007 231.055L555.013 231.064L555.881 230.568ZM555.761 234.984L556.626 235.487L556.631 235.478L555.761 234.984ZM553.937 236.664L554.398 237.551L554.405 237.548L553.937 236.664ZM550.889 237.288V236.288C549.708 236.288 548.791 236.076 548.092 235.707L547.625 236.592L547.159 237.477C548.219 238.036 549.478 238.288 550.889 238.288V237.288ZM547.625 236.592L548.098 235.711C547.39 235.331 546.878 234.83 546.53 234.207L545.657 234.696L544.785 235.185C545.332 236.162 546.132 236.925 547.152 237.473L547.625 236.592ZM545.657 234.696L546.541 234.228C546.195 233.574 546.019 232.831 546.033 231.976L545.033 231.96L544.033 231.944C544.015 233.105 544.255 234.186 544.773 235.164L545.657 234.696ZM545.033 231.96V232.96H546.161V231.96V230.96H545.033V231.96ZM546.161 231.96H545.161C545.161 232.885 545.351 233.76 545.738 234.574L546.641 234.144L547.544 233.714C547.291 233.184 547.161 232.603 547.161 231.96H546.161ZM546.641 234.144L545.751 234.6C546.181 235.44 546.835 236.104 547.674 236.593L548.177 235.728L548.68 234.863C548.144 234.552 547.773 234.16 547.531 233.688L546.641 234.144ZM548.177 235.728L547.683 236.597C548.581 237.107 549.661 237.328 550.865 237.328V236.328V235.328C549.893 235.328 549.182 235.149 548.671 234.859L548.177 235.728ZM550.865 236.328V237.328C551.954 237.328 552.934 237.154 553.745 236.738L553.289 235.848L552.833 234.958C552.396 235.182 551.76 235.328 550.865 235.328V236.328ZM553.289 235.848L553.736 236.742C554.525 236.348 555.16 235.791 555.591 235.059L554.729 234.552L553.867 234.045C553.658 234.401 553.333 234.708 552.842 234.954L553.289 235.848ZM554.729 234.552L555.591 235.059C556.007 234.351 556.209 233.566 556.209 232.728H555.209H554.209C554.209 233.234 554.091 233.665 553.867 234.045L554.729 234.552ZM555.209 232.728H556.209C556.209 231.768 555.993 230.882 555.451 230.176L554.657 230.784L553.864 231.392C554.058 231.646 554.209 232.056 554.209 232.728H555.209ZM554.657 230.784L555.473 230.205C555.019 229.566 554.419 229.065 553.698 228.694L553.241 229.584L552.784 230.474C553.247 230.711 553.591 231.01 553.842 231.363L554.657 230.784ZM553.241 229.584L553.708 228.7C553.063 228.359 552.351 228.079 551.575 227.855L551.297 228.816L551.02 229.777C551.684 229.969 552.267 230.201 552.774 230.468L553.241 229.584ZM551.297 228.816L551.6 227.863C550.912 227.644 550.231 227.409 549.558 227.159L549.209 228.096L548.86 229.033C549.564 229.295 550.275 229.54 550.994 229.769L551.297 228.816ZM549.209 228.096L549.545 227.154C548.515 226.786 547.809 226.35 547.358 225.886L546.641 226.584L545.925 227.282C546.657 228.034 547.663 228.606 548.873 229.038L549.209 228.096ZM546.641 226.584L547.367 225.896C546.984 225.492 546.753 224.932 546.753 224.112H545.753H544.753C544.753 225.34 545.115 226.428 545.916 227.272L546.641 226.584ZM545.753 224.112H546.753C546.753 223.491 546.897 222.966 547.167 222.508L546.305 222L545.444 221.492C544.978 222.282 544.753 223.165 544.753 224.112H545.753ZM546.305 222L547.163 222.514C547.439 222.054 547.848 221.674 548.432 221.382L547.985 220.488L547.538 219.594C546.65 220.038 545.939 220.666 545.448 221.486L546.305 222ZM547.985 220.488L548.448 221.375C549.007 221.083 549.736 220.912 550.673 220.912V219.912V218.912C549.499 218.912 548.435 219.125 547.523 219.601L547.985 220.488ZM550.673 219.912V220.912C551.528 220.912 552.243 221.066 552.841 221.346L553.265 220.44L553.689 219.534C552.783 219.11 551.77 218.912 550.673 218.912V219.912ZM553.265 220.44L552.841 221.346C553.43 221.621 553.874 222.01 554.2 222.517L555.041 221.976L555.882 221.435C555.344 220.598 554.605 219.963 553.689 219.534L553.265 220.44ZM555.041 221.976L554.206 222.526C554.507 222.983 554.689 223.596 554.689 224.424H555.689H556.689C556.689 223.3 556.439 222.281 555.876 221.426L555.041 221.976ZM555.689 224.424V223.424H554.537V224.424V225.424H555.689V224.424ZM554.537 224.424H555.537C555.537 223.529 555.346 222.701 554.912 221.986L554.057 222.504L553.202 223.022C553.408 223.363 553.537 223.815 553.537 224.424H554.537ZM554.057 222.504L554.924 222.005C554.509 221.284 553.897 220.748 553.131 220.395L552.713 221.304L552.296 222.213C552.713 222.404 552.997 222.668 553.19 223.003L554.057 222.504ZM552.713 221.304L553.16 220.41C552.416 220.037 551.568 219.872 550.649 219.872V220.872V221.872C551.331 221.872 551.858 221.995 552.266 222.198L552.713 221.304ZM550.649 220.872V219.872C549.695 219.872 548.822 220.033 548.08 220.415L548.537 221.304L548.994 222.193C549.373 221.999 549.908 221.872 550.649 221.872V220.872ZM548.537 221.304L548.1 220.404C547.382 220.753 546.803 221.261 546.419 221.939L547.289 222.432L548.159 222.925C548.319 222.643 548.572 222.399 548.974 222.204L548.537 221.304ZM547.289 222.432L546.426 221.926C546.053 222.563 545.881 223.278 545.881 224.04H546.881H547.881C547.881 223.586 547.981 223.229 548.152 222.938L547.289 222.432ZM546.881 224.04H545.881C545.881 224.89 546.091 225.685 546.607 226.324L547.385 225.696L548.163 225.068C548.008 224.875 547.881 224.566 547.881 224.04H546.881ZM547.385 225.696L546.607 226.324C547.05 226.872 547.622 227.302 548.292 227.628L548.729 226.728L549.166 225.828C548.717 225.61 548.393 225.352 548.163 225.068L547.385 225.696ZM548.729 226.728L548.323 227.642C548.938 227.915 549.613 228.168 550.346 228.401L550.649 227.448L550.952 226.495C550.278 226.28 549.673 226.053 549.135 225.814L548.729 226.728ZM550.649 227.448L550.346 228.401C551.028 228.618 551.728 228.867 552.445 229.147L552.809 228.216L553.174 227.285C552.419 226.989 551.678 226.726 550.952 226.495L550.649 227.448ZM552.809 228.216L552.434 229.143C553.045 229.39 553.578 229.676 554.037 229.996L554.609 229.176L555.181 228.356C554.584 227.94 553.917 227.586 553.184 227.289L552.809 228.216ZM554.609 229.176L554.049 230.004C554.464 230.285 554.777 230.63 555.002 231.045L555.881 230.568L556.76 230.091C556.377 229.386 555.842 228.803 555.169 228.348L554.609 229.176ZM555.881 230.568L555.013 231.064C555.224 231.433 555.361 231.953 555.361 232.68H556.361H557.361C557.361 231.711 557.179 230.823 556.749 230.072L555.881 230.568ZM556.361 232.68H555.361C555.361 233.344 555.204 233.941 554.892 234.49L555.761 234.984L556.631 235.478C557.119 234.619 557.361 233.68 557.361 232.68H556.361ZM555.761 234.984L554.897 234.481C554.605 234.983 554.147 235.421 553.469 235.78L553.937 236.664L554.405 237.548C555.359 237.043 556.117 236.361 556.626 235.487L555.761 234.984ZM553.937 236.664L553.476 235.777C552.861 236.097 552.016 236.288 550.889 236.288V237.288V238.288C552.226 238.288 553.413 238.063 554.398 237.551L553.937 236.664ZM568.398 236.208L567.875 237.06L567.883 237.065L568.398 236.208ZM565.59 233.16L564.7 233.616L564.702 233.62L565.59 233.16ZM565.59 224.088L566.477 224.548L566.48 224.544L565.59 224.088ZM568.398 221.016L568.921 221.868V221.868L568.398 221.016ZM576.846 221.016L576.323 221.868L576.328 221.872L576.846 221.016ZM579.654 224.088L578.759 224.535L578.761 224.54L579.654 224.088ZM579.654 233.16L580.546 233.612L580.548 233.607L579.654 233.16ZM576.846 236.208L577.36 237.065L577.363 237.063L576.846 236.208ZM576.174 235.392L576.678 236.255V236.255L576.174 235.392ZM578.622 232.752L579.511 233.209V233.209L578.622 232.752ZM578.622 224.448L577.732 224.905V224.905L578.622 224.448ZM569.07 221.808L569.574 222.671V222.671L569.07 221.808ZM566.598 224.448L565.713 223.981L565.708 223.991L566.598 224.448ZM566.598 232.752L565.708 233.209L565.713 233.219L566.598 232.752ZM569.07 235.392L569.574 234.529V234.529L569.07 235.392ZM572.598 237.288V236.288C571.152 236.288 569.936 235.965 568.912 235.351L568.398 236.208L567.883 237.065C569.26 237.891 570.843 238.288 572.598 238.288V237.288ZM568.398 236.208L568.921 235.356C567.881 234.718 567.069 233.84 566.477 232.7L565.59 233.16L564.702 233.62C565.454 235.072 566.514 236.226 567.875 237.06L568.398 236.208ZM565.59 233.16L566.48 232.704C565.891 231.556 565.582 230.197 565.582 228.6H564.582H563.582C563.582 230.459 563.944 232.14 564.7 233.616L565.59 233.16ZM564.582 228.6H565.582C565.582 227.021 565.891 225.679 566.477 224.548L565.59 224.088L564.702 223.628C563.944 225.089 563.582 226.755 563.582 228.6H564.582ZM565.59 224.088L566.48 224.544C567.072 223.387 567.885 222.504 568.921 221.868L568.398 221.016L567.875 220.164C566.511 221 565.451 222.165 564.7 223.632L565.59 224.088ZM568.398 221.016L568.921 221.868C569.943 221.242 571.156 220.912 572.598 220.912V219.912V218.912C570.839 218.912 569.253 219.318 567.875 220.164L568.398 221.016ZM572.598 219.912V220.912C574.075 220.912 575.304 221.243 576.323 221.868L576.846 221.016L577.369 220.164C575.988 219.317 574.384 218.912 572.598 218.912V219.912ZM576.846 221.016L576.328 221.872C577.377 222.506 578.185 223.386 578.759 224.535L579.654 224.088L580.548 223.641C579.81 222.166 578.746 220.998 577.363 220.16L576.846 221.016ZM579.654 224.088L578.761 224.54C579.335 225.673 579.638 227.017 579.638 228.6H580.638H581.638C581.638 226.759 581.284 225.095 580.546 223.636L579.654 224.088ZM580.638 228.6H579.638C579.638 230.2 579.335 231.562 578.759 232.713L579.654 233.16L580.548 233.607C581.285 232.134 581.638 230.456 581.638 228.6H580.638ZM579.654 233.16L578.761 232.708C578.188 233.841 577.38 234.716 576.328 235.352L576.846 236.208L577.363 237.063C578.743 236.228 579.807 235.071 580.546 233.612L579.654 233.16ZM576.846 236.208L576.331 235.351C575.311 235.963 574.079 236.288 572.598 236.288V237.288V238.288C574.38 238.288 575.981 237.893 577.36 237.065L576.846 236.208ZM572.622 236.304V237.304C574.108 237.304 575.47 236.962 576.678 236.255L576.174 235.392L575.669 234.529C574.797 235.038 573.791 235.304 572.622 235.304V236.304ZM576.174 235.392L576.678 236.255C577.895 235.544 578.839 234.517 579.511 233.209L578.622 232.752L577.732 232.295C577.22 233.291 576.532 234.024 575.669 234.529L576.174 235.392ZM578.622 232.752L579.511 233.209C580.192 231.885 580.51 230.336 580.51 228.6H579.51H578.51C578.51 230.096 578.236 231.315 577.732 232.295L578.622 232.752ZM579.51 228.6H580.51C580.51 226.864 580.192 225.315 579.511 223.991L578.622 224.448L577.732 224.905C578.236 225.885 578.51 227.104 578.51 228.6H579.51ZM578.622 224.448L579.511 223.991C578.839 222.683 577.895 221.656 576.678 220.945L576.174 221.808L575.669 222.671C576.532 223.176 577.22 223.909 577.732 224.905L578.622 224.448ZM576.174 221.808L576.678 220.945C575.47 220.238 574.108 219.896 572.622 219.896V220.896V221.896C573.791 221.896 574.797 222.162 575.669 222.671L576.174 221.808ZM572.622 220.896V219.896C571.135 219.896 569.773 220.238 568.565 220.945L569.07 221.808L569.574 222.671C570.446 222.162 571.452 221.896 572.622 221.896V220.896ZM569.07 221.808L568.565 220.945C567.351 221.655 566.401 222.678 565.713 223.981L566.598 224.448L567.482 224.915C568.01 223.914 568.709 223.177 569.574 222.671L569.07 221.808ZM566.598 224.448L565.708 223.991C565.028 225.315 564.71 226.864 564.71 228.6H565.71H566.71C566.71 227.104 566.984 225.885 567.487 224.905L566.598 224.448ZM565.71 228.6H564.71C564.71 230.336 565.028 231.885 565.708 233.209L566.598 232.752L567.487 232.295C566.984 231.315 566.71 230.096 566.71 228.6H565.71ZM566.598 232.752L565.713 233.219C566.401 234.522 567.351 235.545 568.565 236.255L569.07 235.392L569.574 234.529C568.709 234.023 568.01 233.286 567.482 232.285L566.598 232.752ZM569.07 235.392L568.565 236.255C569.773 236.962 571.135 237.304 572.622 237.304V236.304V235.304C571.452 235.304 570.446 235.038 569.574 234.529L569.07 235.392ZM589.653 237H588.653V238H589.653V237ZM589.653 220.2V219.2H588.653V220.2H589.653ZM597.501 220.824L597.039 221.711L597.047 221.715L597.501 220.824ZM599.277 222.528L598.386 222.983L598.39 222.991L598.394 222.999L599.277 222.528ZM599.277 227.472L600.159 227.943L600.163 227.935L599.277 227.472ZM597.477 229.176L597.924 230.07L597.931 230.067L597.477 229.176ZM590.733 229.776V228.776H589.733V229.776H590.733ZM590.733 237V238H591.733V237H590.733ZM598.749 237L597.858 237.454L598.136 238H598.749V237ZM594.861 229.368V228.368H593.229L593.97 229.822L594.861 229.368ZM596.109 229.368L596.997 228.91L596.718 228.368H596.109V229.368ZM600.045 237V238H601.686L600.933 236.542L600.045 237ZM590.733 228.888H589.733V229.888H590.733V228.888ZM597.597 227.88L596.93 227.134L596.922 227.142L597.597 227.88ZM597.621 222.144L596.946 222.883L596.955 222.891L597.621 222.144ZM590.733 221.136V220.136H589.733V221.136H590.733ZM589.653 237H590.653V220.2H589.653H588.653V237H589.653ZM589.653 220.2V221.2H594.357V220.2V219.2H589.653V220.2ZM594.357 220.2V221.2C595.558 221.2 596.43 221.395 597.039 221.711L597.501 220.824L597.962 219.937C596.971 219.421 595.748 219.2 594.357 219.2V220.2ZM597.501 220.824L597.047 221.715C597.701 222.048 598.127 222.475 598.386 222.983L599.277 222.528L600.167 222.073C599.691 221.141 598.933 220.432 597.955 219.933L597.501 220.824ZM599.277 222.528L598.394 222.999C598.692 223.557 598.853 224.209 598.853 224.976H599.853H600.853C600.853 223.919 600.629 222.939 600.159 222.057L599.277 222.528ZM599.853 224.976H598.853C598.853 225.762 598.691 226.432 598.39 227.009L599.277 227.472L600.163 227.935C600.63 227.04 600.853 226.046 600.853 224.976H599.853ZM599.277 227.472L598.394 227.001C598.118 227.519 597.679 227.95 597.022 228.285L597.477 229.176L597.931 230.067C598.906 229.57 599.667 228.865 600.159 227.943L599.277 227.472ZM597.477 229.176L597.029 228.282C596.419 228.587 595.527 228.776 594.285 228.776V229.776V230.776C595.699 230.776 596.934 230.565 597.924 230.07L597.477 229.176ZM594.285 229.776V228.776H590.733V229.776V230.776H594.285V229.776ZM590.733 229.776H589.733V237H590.733H591.733V229.776H590.733ZM590.733 237V236H589.653V237V238H590.733V237ZM598.749 237L599.64 236.546L595.752 228.914L594.861 229.368L593.97 229.822L597.858 237.454L598.749 237ZM594.861 229.368V230.368H596.109V229.368V228.368H594.861V229.368ZM596.109 229.368L595.22 229.826L599.156 237.458L600.045 237L600.933 236.542L596.997 228.91L596.109 229.368ZM600.045 237V236H598.749V237V238H600.045V237ZM590.733 228.888V229.888H594.309V228.888V227.888H590.733V228.888ZM594.309 228.888V229.888C595.901 229.888 597.281 229.522 598.271 228.618L597.597 227.88L596.922 227.142C596.44 227.582 595.628 227.888 594.309 227.888V228.888ZM597.597 227.88L598.263 228.626C599.279 227.718 599.725 226.447 599.725 224.976H598.725H597.725C597.725 226.033 597.418 226.698 596.93 227.134L597.597 227.88ZM598.725 224.976H599.725C599.725 223.535 599.286 222.289 598.286 221.397L597.621 222.144L596.955 222.891C597.427 223.311 597.725 223.953 597.725 224.976H598.725ZM597.621 222.144L598.295 221.406C597.304 220.5 595.913 220.136 594.309 220.136V221.136V222.136C595.648 222.136 596.466 222.444 596.946 222.882L597.621 222.144ZM594.309 221.136V220.136H590.733V221.136V222.136H594.309V221.136ZM590.733 221.136H589.733V228.888H590.733H591.733V221.136H590.733ZM612.364 237H611.364V238H612.364V237ZM612.364 229.992H613.364V229.738L613.243 229.514L612.364 229.992ZM607.036 220.2V219.2H605.354L606.158 220.678L607.036 220.2ZM608.236 220.2L609.118 219.729L608.836 219.2H608.236V220.2ZM613.06 229.224V230.224H614.729L613.942 228.753L613.06 229.224ZM612.772 229.224L611.886 228.762L611.123 230.224H612.772V229.224ZM617.476 220.2V219.2H616.87L616.59 219.738L617.476 220.2ZM618.7 220.2L619.581 220.673L620.372 219.2H618.7V220.2ZM613.444 229.992L612.563 229.519L612.444 229.741V229.992H613.444ZM613.444 237V238H614.444V237H613.444ZM612.364 237H613.364V229.992H612.364H611.364V237H612.364ZM612.364 229.992L613.243 229.514L607.915 219.722L607.036 220.2L606.158 220.678L611.486 230.47L612.364 229.992ZM607.036 220.2V221.2H608.236V220.2V219.2H607.036V220.2ZM608.236 220.2L607.354 220.671L612.178 229.695L613.06 229.224L613.942 228.753L609.118 219.729L608.236 220.2ZM613.06 229.224V228.224H612.772V229.224V230.224H613.06V229.224ZM612.772 229.224L613.659 229.686L618.363 220.662L617.476 220.2L616.59 219.738L611.886 228.762L612.772 229.224ZM617.476 220.2V221.2H618.7V220.2V219.2H617.476V220.2ZM618.7 220.2L617.819 219.727L612.563 229.519L613.444 229.992L614.325 230.465L619.581 220.673L618.7 220.2ZM613.444 229.992H612.444V237H613.444H614.444V229.992H613.444ZM613.444 237V236H612.364V237V238H613.444V237Z" fill="#2A2A27" mask="url(#path-5-outside-1_0_1)"/>
</g>
</svg>

