<svg width="710" height="172" viewBox="280 18 710 172" fill="none" xmlns="http://www.w3.org/2000/svg">
<path d="M609 185C666.397 211.804 671.397 25.3041 724 22" stroke="#B8851E" stroke-width="2.5" stroke-linecap="round"/>
<path d="M306.16 136.96C302.053 136.96 298.453 136.24 295.36 134.8C292.267 133.307 289.867 131.227 288.16 128.56C286.453 125.893 285.6 122.773 285.6 119.2H294C294.053 121.227 294.533 123.093 295.44 124.8C296.4 126.453 297.76 127.787 299.52 128.8C301.333 129.76 303.547 130.24 306.16 130.24C308.4 130.24 310.32 129.867 311.92 129.12C313.573 128.373 314.827 127.36 315.68 126.08C316.533 124.747 316.96 123.227 316.96 121.52C316.96 119.547 316.507 117.92 315.6 116.64C314.693 115.36 313.467 114.32 311.92 113.52C310.427 112.667 308.667 111.92 306.64 111.28C304.667 110.64 302.587 109.947 300.4 109.2C295.973 107.76 292.667 105.893 290.48 103.6C288.347 101.307 287.28 98.32 287.28 94.64C287.28 91.4933 288.027 88.7733 289.52 86.48C291.013 84.1333 293.093 82.32 295.76 81.04C298.48 79.7067 301.68 79.04 305.36 79.04C308.987 79.04 312.16 79.7067 314.88 81.04C317.6 82.3733 319.733 84.2133 321.28 86.56C322.827 88.9067 323.6 91.6533 323.6 94.8H315.12C315.12 93.36 314.747 91.9467 314 90.56C313.253 89.1733 312.133 88.0533 310.64 87.2C309.147 86.2933 307.307 85.84 305.12 85.84C303.307 85.7867 301.68 86.08 300.24 86.72C298.8 87.36 297.68 88.2933 296.88 89.52C296.08 90.7467 295.68 92.2133 295.68 93.92C295.68 95.6267 296.027 97.0133 296.72 98.08C297.467 99.0933 298.533 99.9733 299.92 100.72C301.307 101.467 302.907 102.16 304.72 102.8C306.587 103.387 308.64 104.053 310.88 104.8C313.653 105.707 316.107 106.827 318.24 108.16C320.427 109.44 322.133 111.12 323.36 113.2C324.64 115.227 325.28 117.84 325.28 121.04C325.28 123.813 324.56 126.4 323.12 128.8C321.68 131.2 319.547 133.173 316.72 134.72C313.893 136.213 310.373 136.96 306.16 136.96ZM341.193 136V80H376.553V86.56H349.193V104.48H374.153V110.88H349.193V129.44H376.553V136H341.193ZM417.856 136.96C412.363 136.96 407.616 135.76 403.616 133.36C399.67 130.907 396.603 127.52 394.416 123.2C392.283 118.827 391.216 113.76 391.216 108C391.216 102.293 392.283 97.2533 394.416 92.88C396.603 88.5067 399.67 85.12 403.616 82.72C407.616 80.2667 412.363 79.04 417.856 79.04C424.416 79.04 429.723 80.6133 433.776 83.76C437.883 86.9067 440.496 91.3333 441.616 97.04H432.816C432.016 93.7333 430.363 91.0933 427.856 89.12C425.403 87.1467 422.07 86.16 417.856 86.16C414.07 86.16 410.79 87.04 408.016 88.8C405.243 90.56 403.11 93.0667 401.616 96.32C400.123 99.5733 399.376 103.467 399.376 108C399.376 112.533 400.123 116.453 401.616 119.76C403.11 123.013 405.243 125.52 408.016 127.28C410.79 128.987 414.07 129.84 417.856 129.84C422.07 129.84 425.403 128.907 427.856 127.04C430.363 125.12 432.016 122.533 432.816 119.28H441.616C440.496 124.827 437.883 129.173 433.776 132.32C429.723 135.413 424.416 136.96 417.856 136.96ZM482.787 136.96C477.4 136.96 472.654 135.76 468.547 133.36C464.494 130.907 461.294 127.52 458.947 123.2C456.654 118.827 455.507 113.76 455.507 108C455.507 102.293 456.654 97.28 458.947 92.96C461.294 88.5867 464.494 85.1733 468.547 82.72C472.654 80.2667 477.4 79.04 482.787 79.04C488.28 79.04 493.08 80.2667 497.187 82.72C501.294 85.1733 504.467 88.5867 506.707 92.96C509 97.28 510.147 102.293 510.147 108C510.147 113.76 509 118.827 506.707 123.2C504.467 127.52 501.294 130.907 497.187 133.36C493.08 135.76 488.28 136.96 482.787 136.96ZM482.867 129.84C486.707 129.84 490.067 128.96 492.947 127.2C495.827 125.44 498.04 122.933 499.587 119.68C501.187 116.427 501.987 112.533 501.987 108C501.987 103.467 501.187 99.5733 499.587 96.32C498.04 93.0667 495.827 90.5867 492.947 88.88C490.067 87.12 486.707 86.24 482.867 86.24C479.027 86.24 475.667 87.12 472.787 88.88C469.907 90.5867 467.667 93.0667 466.067 96.32C464.467 99.5733 463.667 103.467 463.667 108C463.667 112.533 464.467 116.427 466.067 119.68C467.667 122.933 469.907 125.44 472.787 127.2C475.667 128.96 479.027 129.84 482.867 129.84ZM526.174 136V80H534.174L562.734 122.96V80H570.734V136H562.734L534.174 93.12V136H526.174ZM588.824 136V80H606.024C612.531 80 617.918 81.1467 622.184 83.44C626.451 85.7333 629.598 88.9867 631.624 93.2C633.704 97.36 634.744 102.32 634.744 108.08C634.744 113.84 633.704 118.8 631.624 122.96C629.598 127.12 626.451 130.347 622.184 132.64C617.971 134.88 612.584 136 606.024 136H588.824ZM596.824 129.28H605.704C610.878 129.28 614.984 128.427 618.024 126.72C621.064 125.013 623.224 122.587 624.504 119.44C625.838 116.24 626.504 112.453 626.504 108.08C626.504 103.653 625.838 99.84 624.504 96.64C623.224 93.44 621.064 90.9867 618.024 89.28C614.984 87.5733 610.878 86.72 605.704 86.72H596.824V129.28Z" fill="#2A2A27"/>
<path d="M732.4 136.96C726.907 136.96 722.16 135.76 718.16 133.36C714.213 130.907 711.147 127.52 708.96 123.2C706.827 118.827 705.76 113.76 705.76 108C705.76 102.293 706.827 97.2533 708.96 92.88C711.147 88.5067 714.213 85.12 718.16 82.72C722.16 80.2667 726.907 79.04 732.4 79.04C738.96 79.04 744.267 80.6133 748.32 83.76C752.427 86.9067 755.04 91.3333 756.16 97.04H747.36C746.56 93.7333 744.907 91.0933 742.4 89.12C739.947 87.1467 736.613 86.16 732.4 86.16C728.613 86.16 725.333 87.04 722.56 88.8C719.787 90.56 717.653 93.0667 716.16 96.32C714.667 99.5733 713.92 103.467 713.92 108C713.92 112.533 714.667 116.453 716.16 119.76C717.653 123.013 719.787 125.52 722.56 127.28C725.333 128.987 728.613 129.84 732.4 129.84C736.613 129.84 739.947 128.907 742.4 127.04C744.907 125.12 746.56 122.533 747.36 119.28H756.16C755.04 124.827 752.427 129.173 748.32 132.32C744.267 135.413 738.96 136.96 732.4 136.96ZM792.771 136.96C788.824 136.96 785.251 136.187 782.051 134.64C778.851 133.04 776.291 130.64 774.371 127.44C772.504 124.187 771.571 120.053 771.571 115.04V80H779.571V115.12C779.571 118.48 780.131 121.253 781.251 123.44C782.371 125.573 783.917 127.173 785.891 128.24C787.917 129.253 790.264 129.76 792.931 129.76C795.651 129.76 797.997 129.253 799.971 128.24C801.944 127.173 803.464 125.573 804.531 123.44C805.651 121.253 806.211 118.48 806.211 115.12V80H814.211V115.04C814.211 120.053 813.251 124.187 811.331 127.44C809.411 130.64 806.824 133.04 803.571 134.64C800.317 136.187 796.717 136.96 792.771 136.96ZM831.734 136V80H850.694C855.12 80 858.747 80.7467 861.574 82.24C864.4 83.7333 866.48 85.7333 867.814 88.24C869.2 90.6933 869.894 93.4933 869.894 96.64C869.894 99.6267 869.2 102.4 867.814 104.96C866.48 107.467 864.374 109.493 861.494 111.04C858.614 112.533 854.934 113.28 850.454 113.28H839.734V136H831.734ZM861.174 136L849.094 111.12H857.894L870.454 136H861.174ZM839.734 107.2H850.134C854.08 107.2 856.987 106.24 858.854 104.32C860.72 102.347 861.654 99.84 861.654 96.8C861.654 93.7067 860.747 91.2533 858.934 89.44C857.12 87.6267 854.187 86.72 850.134 86.72H839.734V107.2ZM901.022 136L880.222 80H888.862L905.822 127.68L922.942 80H931.422L910.622 136H901.022ZM945.237 136V80H980.597V86.56H953.237V104.48H978.197V110.88H953.237V129.44H980.597V136H945.237Z" fill="#B8851E"/>


</svg>

